<?xml version="1.0" encoding="UTF-8" standalone="no"?>
<svg
   xmlns:dc="http://purl.org/dc/elements/1.1/"
   xmlns:cc="http://creativecommons.org/ns#"
   xmlns:rdf="http://www.w3.org/1999/02/22-rdf-syntax-ns#"
   xmlns:svg="http://www.w3.org/2000/svg"
   xmlns="http://www.w3.org/2000/svg"
   width="500"
   height="500"
   viewBox="0 0 468.75002 468.75001"
   id="svg4837"
   version="1.1">
  <defs
     id="defs4839">
    <pattern
       id="EMFhbasepattern"
       patternUnits="userSpaceOnUse"
       width="6"
       height="6"
       x="0"
       y="0" />
    <pattern
       y="0"
       x="0"
       height="6"
       width="6"
       patternUnits="userSpaceOnUse"
       id="EMFhbasepattern-9" />
  </defs>
  <metadata
     id="metadata4842">
    <rdf:RDF>
      <cc:Work
         rdf:about="">
        <dc:format>image/svg+xml</dc:format>
        <dc:type
           rdf:resource="http://purl.org/dc/dcmitype/StillImage" />
        <dc:title></dc:title>
      </cc:Work>
    </rdf:RDF>
  </metadata>
  <g
     transform="matrix(-0.10197732,0.38058454,-0.38058454,-0.10197732,189.53747,701.0679)"
     id="g1021" />
  <g
     transform="translate(-16.076602,8.0383012)"
     id="g832">
    <g
       transform="matrix(0.41769,0,0,0.41769,752.66532,174.01194)"
       id="g1013">
      <path
         id="path1015"
         transform="matrix(2.2444876,0,0,2.2444876,-1801.9711,-416.60547)"
         d="m 269.01953,99.697266 c -0.7294,-0.01462 -1.53317,0.232608 -2.60547,0.781254 -2.21146,1.13146 -2.71267,1.8152 -1.28125,1.75 1.46069,-0.0666 0.51281,0.5319 -2.80078,1.76562 -3.81601,1.4208 -5.33329,1.74056 -8.89062,1.875 -2.20639,0.0834 -2.95416,-0.0314 -3.20508,-0.49023 -0.24527,-0.44857 -0.10127,-0.6616 0.57617,-0.85157 0.49722,-0.13942 1.67594,-0.68511 2.61914,-1.21093 0.9432,-0.52587 2.85167,-1.24743 4.24219,-1.60547 2.92966,-0.75434 3.35531,-1.03443 2.40039,-1.57813 -0.83315,-0.474343 -3.46799,-0.177638 -3.625,0.40821 -0.19212,0.7171 -4.72206,1.44768 -5.67774,0.91601 -0.58859,-0.3275 -1.1062,-0.29725 -1.59179,0.0898 -0.39604,0.31572 -1.95245,0.91967 -3.45899,1.34374 -1.50653,0.42405 -2.99985,1.12674 -3.3164,1.56055 -0.3166,0.43386 -1.72904,1.2432 -3.13868,1.79883 -1.40966,0.55563 -4.04547,1.77261 -5.85742,2.70508 -3.68957,1.89865 -8.56931,3.46678 -9.77929,3.14258 -1.14762,-0.30752 -4.70824,1.23611 -11.38282,4.93164 -3.87616,2.1461 -6.93103,3.50318 -9.08007,4.0332 -4.06605,1.00284 -6.18414,2.12182 -8.16797,4.32031 -0.85779,0.95064 -2.91245,2.44068 -4.56641,3.31055 -1.65396,0.86991 -3.57198,2.21269 -4.26367,2.98242 -0.69165,0.76969 -3.14446,2.78046 -5.44922,4.46875 -2.30476,1.68825 -4.7695,3.75151 -5.47656,4.58594 -0.70702,0.83439 -2.05481,2.04452 -2.9961,2.68945 -1.22326,0.83818 -1.8563,1.62334 -2.2207,2.75 -0.61047,1.88756 -3.27604,4.64361 -4.62891,4.78711 -2.83499,0.3007 -7.49148,6.16106 -11.85742,14.92188 -1.28394,2.5763 -3.5755,6.72676 -5.09179,9.22461 -4.77116,7.85963 -7.17077,12.82889 -8.91407,18.45898 -1.21774,3.93269 -1.80743,5.3251 -2.43359,5.74219 -0.45458,0.30278 -1.02379,0.4061 -1.26563,0.23047 -0.64892,-0.4714 -1.24828,0.82749 -2.55664,5.54101 -0.64518,2.32434 -1.62611,4.98043 -2.17968,5.90235 -1.2811,2.13356 -2.68488,7.04931 -3.38477,11.8496 -0.46162,3.1657 -0.42742,3.91291 0.2207,4.83399 1.05713,1.50234 0.82532,6.5055 -0.36328,7.84375 -0.97234,1.0948 -1.67705,4.96251 -2.19922,12.07031 -0.41256,5.61669 -0.31039,6.43955 1.91016,15.22852 0.9248,3.66023 1.81064,7.94699 1.9668,9.52734 0.15611,1.58039 0.71847,4.98075 1.25,7.55664 0.53148,2.57589 0.90174,4.91974 0.82422,5.20899 -0.0775,0.28924 0.58439,2.90495 1.4707,5.81054 0.88626,2.9056 1.5226,5.61889 1.41211,6.03125 -0.11054,0.41241 0.25248,1.76742 0.80664,3.00977 0.77875,1.74589 1.21582,2.26216 1.92578,2.27344 0.74489,0.0118 1.21468,0.70398 2.48633,3.66211 0.86247,2.0064 1.91759,3.95039 2.3457,4.32031 0.42812,0.36992 1.01448,1.376 1.30078,2.23437 0.28626,0.85836 1.64611,3.12604 3.02344,5.04102 1.37737,1.91498 2.59839,3.87441 2.71289,4.35351 0.18557,0.77632 0.10115,0.81078 -0.77344,0.32422 -1.83761,-1.02235 -1.22275,0.25524 2.12305,4.41211 1.82897,2.27227 4.01474,5.14384 4.85742,6.38086 0.84269,1.23702 2.57895,3.46825 3.85938,4.95899 1.28042,1.49073 2.98903,3.89517 3.79492,5.34179 1.64354,2.95033 6.21465,7.56503 11.23633,11.34375 1.7608,1.32498 3.61187,2.99666 4.11328,3.71485 1.58072,2.26412 3.55424,3.83003 4.36133,3.45898 0.96298,-0.44272 2.74254,0.50112 5.2207,2.77149 3.53653,3.24 8.51918,6.68029 10.26172,7.08398 1.79101,0.41493 5.33141,2.40667 6.4375,3.62109 1.02304,1.12327 7.94128,4.06145 13.73633,5.83399 2.74775,0.84044 4.66025,1.3281 4.25,1.08398 -0.91144,-0.54234 -1.51657,-1.43157 -0.85352,-1.2539 0.25485,0.0683 1.07501,-0.19939 1.82227,-0.59375 0.74725,-0.39437 1.83958,-0.62209 2.42773,-0.50586 0.5882,0.11622 -1.81759,-0.67557 -5.3457,-1.75977 -4.86374,-1.49464 -6.61233,-2.18914 -7.23047,-2.87305 -0.44834,-0.4961 -2.48028,-1.58546 -4.51563,-2.42187 -5.84752,-2.40305 -6.30605,-2.66184 -6.98242,-3.94336 -0.032,-0.0606 -0.0798,-0.12524 -0.12109,-0.1875 1.03374,0.54422 2.03689,1.03616 2.78906,1.30859 1.3383,0.48475 1.48427,0.48047 0.69531,-0.0215 -0.54903,-0.34931 -1.59767,-1.37105 -2.33008,-2.26953 -1.93269,-2.37094 -4.55105,-3.85305 -6.08007,-3.44336 l -1.02539,0.27539 c -2.6125,-1.51751 -6.06927,-3.64807 -8.04102,-4.97266 -4.53787,-3.04842 -13.23704,-10.56714 -15.25976,-13.18945 -0.7821,-1.01392 -2.04072,-2.4005 -2.79688,-3.08203 -2.13202,-1.92165 -6.20264,-7.32093 -9.33008,-12.37695 -1.56294,-2.52683 -3.85816,-5.81917 -5.10156,-7.31641 -3.29028,-3.96189 -5.70593,-7.99633 -6.13672,-10.24805 -0.20731,-1.08351 -1.42479,-3.98 -2.70508,-6.43554 -4.29185,-8.23159 -10.20291,-24.54069 -9.64648,-26.61719 0.15081,-0.56282 -0.0811,-2.96958 -0.51563,-5.34961 -0.43453,-2.37999 -0.718,-5.25088 -0.63086,-6.37891 0.10765,-1.39306 -0.10281,-2.40322 -0.65429,-3.15039 -1.02906,-1.39412 -2.56043,-9.18757 -2.125,-10.8125 0.19251,-0.71852 0.0437,-1.83208 -0.35938,-2.69336 -0.41559,-0.88806 -0.55331,-1.97554 -0.34765,-2.75 0.18725,-0.70458 0.12579,-1.92318 -0.13672,-2.70703 -0.56623,-1.69074 -0.25088,-3.30991 0.59961,-3.08203 0.44602,0.11952 0.61412,-0.15943 0.67578,-1.11523 0.0855,-1.32638 0.57428,-1.51827 1.18359,-0.46289 0.5162,0.89401 0.85992,-0.65243 0.58985,-2.65626 -0.35871,-2.66127 -0.38742,-9.02329 -0.0547,-12.0957 0.27685,-2.5567 0.41937,-2.96936 1.21679,-3.48437 0.30715,-0.19836 0.5132,-0.37706 0.66016,-0.64063 -0.19456,2.13548 -0.2925,4.12902 -0.11719,4.08203 0.12714,-0.0341 0.43851,-1.13398 0.69336,-2.44336 0.25485,-1.30933 0.73329,-2.85742 1.0625,-3.4414 0.63881,-1.13319 0.61095,-2.08903 -0.0977,-3.3711 -0.24196,-0.43775 -0.46089,-0.82016 -0.48633,-0.84961 -0.0106,-0.0123 -0.12244,0.41124 -0.18164,0.59766 0.72167,-3.53772 2.08063,-8.2602 2.92578,-9.79297 0.12906,-0.23406 0.33665,-0.71806 0.57812,-1.3164 0.0186,0.29917 0.17362,0.36033 0.47657,0.30859 1.13713,-0.19415 1.43294,2.11791 0.55664,4.3457 -0.77833,1.97871 -0.93069,3.25734 -0.42578,3.54883 0.47999,0.27711 1.03978,-0.87232 1.25976,-2.58398 0.10552,-0.82109 0.84349,-3.29694 1.63867,-5.50196 0.79518,-2.20497 1.40894,-4.1416 1.36524,-4.30468 -0.14262,-0.53232 -1.05779,-0.28347 -1.44922,0.39453 -0.21031,0.36426 -0.50725,0.59026 -0.66016,0.50195 -0.33012,-0.19058 -0.1557,-2.96957 0.24219,-3.85547 0.15284,-0.34028 -0.17232,0.0227 -0.72266,0.80664 0.0135,-0.0409 0.0275,-0.0744 0.041,-0.11523 1.90355,-5.76326 2.22418,-6.44974 4.01172,-8.57422 0.93817,-1.11496 2.12337,-2.365 2.86133,-3.03906 -0.009,0.15564 0.0378,0.24572 0.15234,0.26953 0.66805,0.13923 1.67959,-1.16313 1.48047,-1.90625 -0.086,-0.3211 0.18005,-1.16771 0.5918,-1.88086 0.41175,-0.71315 0.67193,-1.34025 0.57812,-1.39453 -0.0376,-0.0217 -0.19929,0.18254 -0.41016,0.48242 0.20155,-0.67293 0.40454,-1.36318 0.67774,-2.33399 1.70137,-6.04575 2.43506,-7.25656 5.00976,-8.26953 0.78776,-0.30995 1.81133,-1.1578 2.27344,-1.88476 0.46211,-0.72692 3.07904,-3.94862 5.81641,-7.15821 2.73737,-3.20954 5.72231,-7.15989 6.63281,-8.77929 1.85,-3.29048 3.40518,-4.97484 6.98047,-7.55664 1.88818,-1.36352 2.52325,-2.08443 2.82617,-3.21485 0.44358,-1.65553 2.15895,-2.89593 3.9668,-2.86718 0.60838,0.01 1.63928,-0.48388 2.29101,-1.09766 0.65173,-0.61379 3.42783,-2.29229 6.16993,-3.73047 3.30133,-1.73145 5.26238,-3.03655 5.80468,-3.86328 0.91741,-1.39845 2.88432,-2.47507 6.16016,-3.38672 -1.80213,1.11933 -3.66781,2.41467 -5.43945,3.80078 -1.63717,1.2809 -3.61187,2.56028 -4.38868,2.8418 -2.44891,0.88752 -4.35783,2.30292 -4.21679,3.1289 0.16828,0.98553 -1.12708,2.37637 -3.80078,4.08008 -3.81561,2.43133 -8.16378,6.13192 -8.95704,7.6211 -0.81533,1.5306 -3.49645,4.27109 -4.87304,4.98242 -1.27325,0.65792 -5.63806,6.24236 -8.66797,11.08984 -1.43664,2.29847 -2.34798,3.92163 -2.02539,3.60742 0.71669,-0.69805 1.67337,-1.03147 1.34961,-0.4707 -0.12444,0.21554 -0.0812,1.02754 0.0957,1.80469 0.17689,0.77715 0.11864,1.82841 -0.13086,2.33594 -0.2495,0.50757 1.05894,-1.49142 2.90821,-4.44141 2.54932,-4.06676 3.60874,-5.49047 4.38281,-5.88672 0.56149,-0.28739 2.05152,-1.87116 3.31054,-3.52148 3.61723,-4.74137 3.96602,-5.09699 5.29883,-5.40039 0.92702,-0.21099 2.22996,-1.26559 4.94532,-4 0.46225,-0.4655 1.07984,-1.04604 1.6289,-1.58008 -0.82409,1.03131 -1.63942,2.04772 -2.54883,3.23437 -1.98851,2.59475 -4.44323,5.35932 -5.45507,6.14258 -1.01182,0.7833 -3.05038,2.68703 -4.53126,4.23242 -1.84704,1.9275 -2.9244,2.74868 -3.42968,2.61328 -0.63556,-0.1703 -0.76729,0.0466 -0.95508,1.58204 -0.16454,1.34575 -0.48311,2.02526 -1.30859,2.78515 -1.2897,1.18726 -1.24515,1.7844 0.0605,0.81641 0.49909,-0.37001 1.33941,-0.76441 1.86719,-0.87696 0.53968,-0.11506 1.60113,-1.09224 2.42773,-2.23242 0.80838,-1.11507 2.58615,-3.09307 3.94922,-4.39453 1.36303,-1.30141 3.0514,-2.99465 3.75196,-3.76367 0.70051,-0.76902 1.95409,-1.81531 2.78515,-2.32422 0.83106,-0.50891 3.87013,-2.64643 6.75391,-4.75 4.33925,-3.16519 6.04503,-4.74756 9.90039,-9.17773 2.56219,-2.94417 5.59605,-6.27687 6.74023,-7.40625 1.14423,-1.12938 2.12537,-2.22549 2.18164,-2.43555 0.0275,-0.1027 0.0251,-0.18414 0.008,-0.25586 0.8997,-0.43161 1.82345,-0.90746 2.39062,-1.27539 2.27147,-1.47346 8.18426,-3.86331 13.55469,-5.47852 2.68394,-0.80718 6.24431,-2.09588 7.91211,-2.86328 4.41324,-2.03071 8.67907,-3.24707 10.83594,-3.08984 1.03787,0.0756 3.97344,-0.32749 6.52343,-0.89453 3.00113,-0.66737 6.96225,-1.26493 10.91016,-1.72656 -0.16309,0.17962 -0.3065,0.34725 -0.47852,0.53125 -1.77804,1.90192 -3.14735,3.60633 -3.04296,3.7871 0.43528,0.75395 2.74135,-0.43116 3.29101,-1.6914 0.45997,-1.05465 0.92705,-1.36195 2.60352,-1.71094 1.12391,-0.234 2.54775,-0.29014 3.16406,-0.125 0.64023,0.17155 3.36666,-0.2952 6.36133,-1.08789 0.87021,-0.23036 1.55949,-0.39792 2.21875,-0.55273 0.76815,0.0521 1.33347,0.1436 1.58203,0.28711 0.476,0.27482 2.72531,0.65079 5,0.83593 0.11677,0.01 0.24072,0.0263 0.35937,0.0371 -0.26722,1.10479 -1.11124,1.36375 -3.9414,1.32227 -4.46837,-0.0655 -4.11535,0.52993 1.04101,1.75586 3.42836,0.81507 4.50691,0.93635 4.61914,0.51758 0.0805,-0.30052 -0.0473,-0.67499 -0.28515,-0.83204 -0.64683,-0.42705 0.30007,-1.11839 1.20117,-0.87695 0.50617,0.13564 0.85852,-0.068 0.99414,-0.57422 0.0744,-0.27766 0.25329,-0.54681 0.45508,-0.73633 0.6294,0.12463 1.18859,0.24916 1.52344,0.36719 1.12873,0.3979 2.02546,0.46417 2.79296,0.23633 4.16188,1.10421 10.23006,2.99131 11.5625,3.72656 0.93238,0.51455 1.87742,1.25313 2.10157,1.64063 0.2241,0.38754 0.72309,0.67145 1.10937,0.63086 0.38633,-0.0405 3.40087,0.53124 6.69922,1.27148 6.22013,1.39601 11.03306,3.20245 13.11719,4.92383 0.58418,0.48255 1.74492,1.23241 2.58008,1.66602 0.83515,0.43359 2.06102,1.41978 2.72461,2.1914 0.97839,1.13761 1.88219,1.63578 4.77929,2.63672 2.32468,0.8032 4.42058,1.84218 5.99805,2.97266 1.3334,0.95552 3.0025,1.89077 3.70898,2.08007 1.43868,0.38549 6.19135,4.33299 8.86524,7.36329 0.96534,1.09399 3.02735,2.9467 4.58398,4.11523 1.55663,1.16857 3.1773,2.57385 3.60156,3.12305 0.42428,0.5492 0.90152,0.92273 1.0586,0.83203 0.29729,-0.17164 -0.44813,-1.26214 -1.70313,-2.67188 0.43548,0.26395 0.78014,0.47915 1.33789,0.81055 5.0933,3.02627 6.01813,3.99069 6.3125,6.58398 0.0901,0.79345 0.61451,1.93271 1.16407,2.53125 0.54951,0.59854 2.84346,3.76907 5.09961,7.04688 0.39764,0.57772 0.82636,1.16858 1.25,1.75586 -0.007,0.0775 -0.0139,0.15527 -0.0332,0.22851 -0.19932,0.7561 1.63691,3.11596 2.63282,3.38282 0.0396,0.0106 0.0845,1.8e-4 0.12695,0.002 0.97739,1.23279 1.85748,2.28387 2.4043,2.81836 2.5465,2.48901 3.70013,4.31706 5.17968,8.20508 0.18225,0.47889 0.34854,0.87312 0.50977,1.22461 0.8526,2.76315 1.09824,4.17004 0.79297,4.71875 -0.30701,0.55182 -0.22836,1.31754 0.23633,2.31054 l 0.69335,1.48438 1.33594,-0.70508 0.34766,-0.18359 c 0.0828,0.4058 0.22103,0.82819 0.41016,1.17968 0.40014,0.74369 1.25163,3.68358 1.89257,6.53321 0.36841,1.638 0.72117,2.95195 1.0586,3.97656 -0.44259,-0.39385 -0.49448,-0.33009 -0.33789,0.32813 0.11032,0.46377 0.70207,2.30763 1.31445,4.0957 0.75037,2.191 0.99871,3.67359 0.76367,4.55078 -0.4135,1.5432 0.48071,4.59351 1.94531,6.84961 0.22469,0.94427 0.48077,1.9515 0.76953,3.01367 0.44697,1.64411 0.81206,3.12547 1.09766,4.49024 2.8e-4,0.001 -2.7e-4,0.003 0,0.004 0.009,0.66516 0.0292,1.25622 0.0195,2.07227 -0.0126,1.06686 0.30728,3.09739 0.71094,4.51367 0.0301,0.1056 0.0508,0.19631 0.0801,0.30078 0.004,1.162 -0.0636,2.29133 -0.21094,3.4375 -0.10613,0.82576 0.0559,1.60705 0.37109,1.78906 0.29862,0.17241 0.89884,1.14968 1.35743,2.19532 0.039,0.44472 0.0796,0.89261 0.0801,1.26757 0.002,1.49487 -0.16741,2.01048 -0.9375,2.85547 -0.095,0.10429 -0.17617,0.21533 -0.26171,0.32422 0.0277,-0.48553 0.002,-1.05802 -0.1211,-1.68359 -0.23974,-1.22236 -0.36517,-1.2139 -0.56836,0.043 -0.25778,1.59452 -0.2464,2.4876 0.0274,2.73046 -0.50421,1.11163 -0.62554,2.39148 -0.33204,3.8086 0.38003,1.83471 -0.15704,10.52684 -0.79687,12.89062 -0.20914,0.77265 -0.18267,1.46933 0.0488,2.03711 -0.14892,0.1784 -0.296,0.24464 -0.43555,0.16407 -0.15011,-0.0866 -0.16373,-1.7279 -0.0293,-3.64649 0.13443,-1.91855 0.1746,-3.46998 0.0899,-3.44727 -0.0848,0.0227 -0.63215,2.35458 -1.2168,5.18165 -0.58461,2.82707 -1.25094,5.19045 -1.48047,5.25195 -0.22957,0.0615 -1.47853,-1.59327 -2.77734,-3.67774 -1.29886,-2.08443 -2.51877,-3.74824 -2.70899,-3.69726 -0.79323,0.21255 -0.2758,2.6036 0.73829,3.41211 0.84865,0.6766 1.01514,1.17632 0.92382,2.78906 -0.0612,1.0812 -0.35726,2.39282 -0.6582,2.91406 -0.31262,0.54148 -0.55364,3.14033 -0.5625,6.0625 -0.0124,4.11084 -0.18928,5.46096 -0.90039,6.87891 -0.77207,1.53941 -0.97769,1.72471 -1.61719,1.45703 -1.21543,-0.50877 -1.30955,-1.24755 -0.51367,-4.05273 1.15063,-4.05543 0.52046,-3.87947 -1.85547,0.51953 -1.57968,2.9248 -1.95378,3.87948 -1.59961,4.08398 0.25417,0.14673 0.62696,0.11981 0.82813,-0.0586 0.54703,-0.48511 0.94585,0.54845 0.50586,1.31054 -0.24717,0.4281 -0.14686,0.79582 0.28125,1.04297 0.36426,0.2103 0.67029,0.64354 0.68164,0.96289 0.0301,0.84646 -6.45547,11.49631 -7.94336,13.04297 -0.69647,0.72392 -1.60001,1.406 -2.00781,1.51563 -0.40783,0.10958 -0.79033,0.49555 -0.84766,0.85742 -0.0574,0.3619 -1.31321,2.96836 -2.79297,5.79297 -2.79061,5.32673 -5.61216,9.27128 -7.68945,10.75 -0.58231,0.41448 -1.54945,1.29021 -2.14844,1.94531 -0.59898,0.65511 -1.79702,1.53102 -2.66211,1.94727 -1.27542,0.61374 -1.94902,1.31558 -3.56836,3.71093 -1.29941,1.92207 -2.75669,3.57696 -4.17187,4.73829 -1.19619,0.98166 -2.45776,2.27358 -2.80274,2.87109 -0.70249,1.21676 -5.45912,4.58278 -8.87305,6.2793 -1.23249,0.61249 -3.42242,2.04077 -4.86718,3.17382 -1.4448,1.13304 -3.12257,2.26704 -3.72656,2.51954 -0.604,0.2525 -1.06188,0.59449 -1.01758,0.75976 0.12724,0.47491 2.66031,-0.62098 5.57031,-2.41016 2.37572,-1.46064 2.62188,-1.53162 2.23828,-0.64648 -0.56807,1.31081 -5.24871,5.60932 -6.77148,6.21875 -0.65801,0.26335 -1.81885,1.10588 -2.58008,1.87305 -0.83335,0.83988 -2.43277,1.79451 -4.01953,2.39844 -1.44943,0.55165 -3.16634,1.48358 -3.81641,2.07031 -2.43734,2.19989 -5.8794,4.04242 -6.68359,3.57812 -0.58803,-0.3395 0.33719,-1.10799 3.65234,-3.03515 3.26208,-1.89634 4.60156,-3.11959 3.875,-3.53907 -0.18286,-0.10557 -0.87684,0.16006 -1.54102,0.58985 -2.45631,1.5894 -4.64078,2.21249 -5.67187,1.61718 -0.53617,-0.30954 -1.15846,-0.46445 -1.38281,-0.34374 -0.22431,0.12071 -0.66619,0.0704 -0.98438,-0.11133 -0.64026,-0.36621 -3.24027,0.73193 -3.72656,1.57422 -0.17028,0.29492 -0.0492,0.79255 0.26953,1.10742 0.74291,0.73402 0.42107,1.27639 -0.90039,1.51367 -0.57531,0.1033 -1.67865,0.56108 -2.45117,1.01562 -0.82125,0.48321 -2.16744,0.78672 -3.24024,0.73243 -1.00914,-0.0511 -3.82789,-2e-5 -6.26562,0.11328 -3.16908,0.14728 -4.61479,0.0291 -5.07227,-0.41407 -0.42784,-0.41446 -1.14581,-0.53057 -2.16406,-0.3496 l -1.52148,0.27148 0.3164,1.38867 0.31446,1.38867 2.94726,0.19141 c 1.62088,0.10533 3.55282,0.13737 4.29297,0.0723 0.74012,-0.0651 1.39091,0.0489 1.44531,0.25195 0.14521,0.54188 -2.9542,1.00827 -6.99414,1.05469 -3.23352,0.0372 -5.22033,0.32342 -4.62695,0.66601 0.12917,0.0746 0.64047,0.14806 1.13672,0.16406 1.33673,0.0431 1.20843,0.42128 -0.46289,1.36524 l -1.49414,0.84375 1.00195,0.0332 c 0.55166,0.0178 4.86693,-0.92372 9.58984,-2.0918 14.65175,-3.62376 20.13285,-4.6215 22.91407,-4.17187 0.58137,0.094 1.06198,0.3453 1.06836,0.55859 0.019,0.6346 -3.32483,2.07312 -5.10352,2.19532 -0.90819,0.0624 -4.81448,1.27289 -8.67969,2.68945 -3.86517,1.41658 -8.59466,2.87575 -10.50976,3.24414 -1.91511,0.36839 -4.49205,0.94035 -5.72657,1.27148 -1.23451,0.33114 -2.88958,0.43526 -3.67773,0.23047 -0.78815,-0.20478 -2.79197,-0.20783 -4.45313,-0.006 -4.15439,0.50515 -8.32998,0.48347 -15.27734,-0.0801 -3.25,-0.26363 -6.05229,-0.4142 -6.22656,-0.33594 -2.23499,1.00338 -6.42619,-0.41548 -5.98438,-2.02539 0.28852,-1.05138 -0.13907,-1.22565 -1.86328,-0.76367 -2.82663,0.75739 -8.98582,0.69211 -12.16797,-0.12891 -1.70231,-0.4392 -3.92586,-0.97824 -4.9414,-1.19727 -1.15627,-0.24938 -2.43448,-0.8334 -3.41992,-1.5625 -1.12137,-0.82964 -2.80548,-1.52592 -5.85547,-2.41992 -2.35415,-0.69003 -5.66325,-1.87007 -7.35547,-2.62305 -3.80664,-1.69381 -12.76457,-6.81828 -12.7793,-7.31054 -0.006,-0.19924 0.69388,-0.41575 1.55664,-0.48242 1.92644,-0.14889 7.19423,2.23786 8.39649,3.80468 0.58488,0.76221 1.31832,1.14962 3.54687,1.87891 1.54519,0.50566 3.41341,0.98034 4.15235,1.05469 2.39294,0.24072 3.14558,0.5653 4.58398,1.97265 1.26567,1.23836 1.75303,1.46721 4.64258,2.19336 3.19456,0.80279 4.57981,0.81789 3.2207,0.0332 -1.02825,-0.59367 -0.60622,-0.95488 1.69141,-1.44727 1.27134,-0.27245 2.58247,-0.23369 3.46484,0.10352 0.78099,0.29847 2.17388,0.77681 3.0957,1.0625 0.92183,0.28569 1.91358,0.77852 2.20313,1.0957 0.34097,0.37354 1.17967,0.49055 2.38281,0.33008 2.2411,-0.29892 14.01342,0.96075 17.1543,1.83593 2.14983,0.59903 2.60854,0.54243 5.16601,-0.63867 0.61686,-0.28486 2.25034,-0.45674 3.63086,-0.38086 2.0207,0.11109 4.95095,-0.54292 5.32422,-1.18945 0.27528,-0.4768 -2.63933,-1.02863 -4.01367,-0.75976 -0.9266,0.18126 -1.83252,0.24325 -2.01367,0.13867 -0.60401,-0.34873 0.007,-0.79311 1.17969,-0.85938 0.63756,-0.036 1.51387,-0.2855 1.94726,-0.55469 0.69882,-0.43405 0.69551,-0.49123 -0.0293,-0.51171 -0.44951,-0.0127 -2.274,0.0758 -4.05273,0.19726 -2.17956,0.14879 -3.5921,0.0123 -4.33398,-0.41601 -1.40657,-0.81209 -4.78687,-0.67805 -7.27344,0.2871 -1.93419,0.75079 -3.65696,0.58933 -8.63086,-0.80664 -0.96901,-0.27196 -2.8981,-0.4771 -4.28711,-0.45507 -3.7725,0.0599 -6.74153,-0.17024 -8.60156,-0.66602 -1.36252,-0.36328 -1.79114,-0.6428 -2.37305,-1.55078 -0.94807,-1.47916 -2.46859,-2.3036 -4.45312,-2.41797 -1.76451,-0.10167 -9.5532,-2.7149 -11.55079,-3.875 -0.79516,-0.46179 -1.57963,-0.59632 -2.23632,-0.38476 -0.61448,0.19793 -1.44477,0.0746 -2.11524,-0.3125 -0.6071,-0.35052 -2.71072,-1.17103 -4.67578,-1.82422 -1.96502,-0.65318 -5.17332,-1.96327 -7.12891,-2.91016 -2.08481,-1.00946 -4.26367,-1.79889 -5.26757,-1.9082 l -1.71289,-0.18555 0.96289,0.87695 c 0.52922,0.48221 1.01983,1.22549 1.09179,1.65235 0.11729,0.69583 -0.47084,0.39557 -5.70312,-2.90625 -10.20067,-6.43711 -14.53144,-9.54123 -18.14453,-13.00586 -1.87648,-1.79939 -3.66754,-3.79637 -3.98047,-4.43946 -0.53157,-1.09242 -3.82067,-4.8869 -5.52539,-6.37304 -0.41611,-0.36276 -1.03915,-0.9072 -1.38282,-1.20899 -0.34363,-0.30176 -0.87019,-1.36147 -1.17187,-2.35547 -0.30169,-0.99398 -1.10508,-2.69634 -1.78516,-3.7832 -1.23549,-1.97451 -1.10955,-2.77812 0.3125,-1.98437 0.69999,0.3907 0.72945,0.36405 0.41797,-0.37696 -0.18447,-0.43892 -0.18939,-1.04968 -0.0117,-1.35742 0.71776,-1.24318 4.82898,2.40787 4.65821,4.13672 -0.051,0.51615 0.21351,1.12174 0.58789,1.3457 0.37438,0.22396 1.0768,1.13938 1.56054,2.03516 0.48375,0.89577 1.22857,1.83169 1.65625,2.08008 0.42774,0.24823 1.19653,1.00037 1.70704,1.66992 0.77691,1.01899 0.82342,1.33787 0.28515,1.96094 -0.69608,0.8058 -0.45446,1.35386 0.95899,2.16992 0.46278,0.26719 0.97031,1.05001 1.12695,1.73828 0.31139,1.36795 5.8841,7.77012 7.65234,8.79102 0.86542,0.49964 0.99156,0.47223 0.87891,-0.1875 -0.19237,-1.12661 0.11743,-1.04749 2.19336,0.55859 1.02977,0.79672 2.41134,1.58379 3.07031,1.74805 0.65897,0.16426 3.00259,1.33942 5.20899,2.61328 3.26536,1.88526 4.06385,2.22445 4.29492,1.82422 0.50436,-0.87358 1.15535,-0.55487 2.47265,1.21093 0.98281,1.31742 1.76407,1.95293 3.27539,2.66602 1.79333,0.84615 3.88103,0.9534 3.67578,0.1875 -0.0409,-0.15265 -4.63402,-2.996 -10.20507,-6.31641 -9.48373,-5.65239 -10.35641,-6.24448 -13.69336,-9.31836 -5.03497,-4.63803 -10.35551,-10.571 -11.48242,-12.80273 -0.52735,-1.04435 -1.22361,-2.4075 -1.54883,-3.0293 -0.83977,-1.6056 -0.63206,-2.28863 0.50195,-1.64648 0.79037,0.44756 0.71866,0.17759 -0.4707,-1.77149 -0.7715,-1.26424 -1.60915,-2.64762 -1.86328,-3.07421 -0.25418,-0.42663 -1.34599,-1.72708 -2.42579,-2.89063 -2.28433,-2.46148 -3.78964,-5.07832 -5.125,-8.91602 -0.52483,-1.50831 -1.62606,-3.55803 -2.44726,-4.55468 -0.82121,-0.99666 -1.5498,-2.14488 -1.61914,-2.55078 -0.0693,-0.40594 -0.68991,-1.06394 -1.38086,-1.46289 -1.39055,-0.80283 -2.82334,-3.21743 -3.91602,-6.59961 -0.74533,-2.30709 -0.51317,-3.22635 0.6543,-2.58594 1.27366,0.69871 -1.67279,-8.47903 -3.31641,-10.33008 -0.90546,-1.01976 -1.45861,-2.26166 -1.88085,-4.23047 -0.7281,-3.39493 -1.01351,-5.61297 -0.7754,-6.02539 0.28779,-0.49844 -0.60291,-3.10661 -1.38867,-4.06641 -0.80208,-0.97969 -0.80785,-4.73681 -0.01,-6.11914 0.60433,-1.04674 0.28606,-3.32304 -0.53125,-3.79492 -0.73995,-0.42722 -1.21766,-4.045 -0.94141,-7.14062 0.34752,-3.8943 0.15907,-10.63641 -0.30078,-10.73047 -0.71484,-0.14655 -1.38386,0.88424 -1.1875,1.83008 0.0989,0.47639 0.001,2.29811 -0.2168,4.04882 -0.52021,4.17201 -0.5208,4.05746 0.10742,11.65039 0.6357,7.68335 0.65209,11.39797 0.0547,12.27344 -0.26041,0.38165 -0.14226,1.35668 0.29883,2.46094 0.40167,1.00564 1.19089,3.35346 1.75391,5.2168 0.563,1.86338 1.48533,4.88764 2.04882,6.72265 0.56349,1.83506 0.85625,3.38288 0.65235,3.4375 -0.47217,0.12654 -2.08191,-3.55139 -2.79297,-6.3789 -0.30013,-1.19342 -0.7613,-2.29479 -1.02539,-2.44727 -0.2641,-0.15248 -1.39961,-3.72397 -2.52149,-7.9375 -2.01631,-7.57267 -2.22749,-9.26831 -2.37109,-18.93945 -0.0239,-1.60649 -0.29282,-4.18155 -0.59766,-5.72266 -0.30483,-1.5411 -0.52916,-3.35071 -0.49804,-4.02148 0.0311,-0.67073 -0.0825,-1.5919 -0.25196,-2.04688 -0.28297,-0.75963 -0.33684,-0.73173 -0.67187,0.32813 -1.21011,3.82811 -1.83961,5.18287 -2.58984,5.58203 -0.66864,0.35575 -0.70611,0.69761 -0.26563,2.42578 0.69272,2.71778 0.62055,8.98831 -0.11914,10.28125 -0.77814,1.36013 -0.84664,6.19636 -0.10352,7.32812 0.93312,1.42111 1.82874,4.66627 3.07032,11.11719 0.69416,3.6067 1.40907,6.15784 1.78515,6.375 0.70356,0.4062 1.50217,3.73534 1.07422,4.47657 -0.15237,0.26391 -0.48365,0.48652 -0.73828,0.49414 -0.92188,0.0277 -0.75609,0.61975 0.92383,3.27929 0.94033,1.48866 2.15543,4.16003 2.70117,5.9375 0.54574,1.77748 1.17812,3.33818 1.4043,3.46875 0.22618,0.13057 0.80396,1.74335 1.2832,3.58399 0.47924,1.84062 1.28877,4.08475 1.79883,4.98633 1.54233,2.72614 0.80951,4.11709 -0.76758,1.45703 -0.50843,-0.85756 -1.09569,-1.58984 -1.30469,-1.62891 -0.209,-0.0391 -0.33919,0.81442 -0.28906,1.89648 0.0643,1.38747 0.32796,2.10887 0.89453,2.44922 1.12898,0.67827 2.88633,3.88009 4.55274,8.29492 1.17619,3.11604 1.99727,4.49171 4.73632,7.95118 8.72144,11.01537 11.9569,15.28602 12.04883,15.90429 0.0967,0.65 1.21518,1.3866 7.06446,4.64649 3.67541,2.04836 12.43127,8.3313 13.00781,9.33398 0.11673,0.20304 1.87653,1.41024 3.91015,2.6836 2.03363,1.27335 4.15229,2.76758 4.70899,3.32031 0.55669,0.55273 1.67958,1.39154 2.49414,1.86328 1.19341,0.69106 1.43914,1.00961 1.26562,1.64258 -0.18406,0.67074 0.0704,0.95132 1.74805,1.91992 1.08056,0.62386 2.73003,1.27658 3.66602,1.45117 1.94982,0.36371 2.65357,1.00651 2.11718,1.93555 -0.4514,0.78185 0.68383,1.58242 1.41016,0.99414 0.35593,-0.28833 1.01849,-0.0944 2.39648,0.70117 1.05974,0.61186 2.49869,1.12755 3.24415,1.16211 0.80088,0.0372 1.66707,0.36 2.15429,0.80469 0.44818,0.40907 1.85857,1.03181 3.13282,1.38281 3.14623,0.86666 4.50044,1.7086 4.8496,3.01172 0.37067,1.3833 0.60419,1.49475 2.43164,1.16992 1.9921,-0.35406 4.5058,0.13335 7.63868,1.48242 1.54762,0.66644 4.78761,1.47663 8.24218,2.06055 3.5026,0.59203 6.1792,1.2647 6.95508,1.74609 1.48103,0.91889 6.01274,1.89 7.69141,1.64844 0.64433,-0.0927 2.48062,0.0411 4.08008,0.29688 2.81347,0.44999 8.18898,0.26167 11.50586,-0.24414 -0.076,0.1201 0.13138,0.20036 0.60742,0.15039 0.37763,-0.0396 0.62231,-0.18232 0.54492,-0.31641 -0.009,-0.0159 -0.0303,-0.0258 -0.0449,-0.0391 0.69178,-0.14797 1.26975,-0.30865 1.53906,-0.48828 0.61312,-0.40892 2.19489,-0.9808 3.51563,-1.26953 3.59077,-0.78505 5.16373,0.50908 2.46875,2.03124 l -1.38086,0.7793 0.8164,0.47266 c 0.49075,0.28333 0.7288,0.72321 0.59766,1.10351 -0.18627,0.54008 -0.0202,0.586 1.12891,0.31055 0.82509,-0.19778 2.41357,-1.27376 4.10546,-2.7793 l 2.76172,-2.45703 1.06641,-0.18945 c -0.0282,0.03 -0.0561,0.0605 -0.0547,0.084 0.0461,0.77219 1.28458,1.17348 2.19922,0.71289 0.46068,-0.23196 2.35249,-0.63185 4.20508,-0.88867 4.41477,-0.612 4.29776,-0.58005 11.90039,-3.30664 0.53169,-0.19068 0.90356,-0.31004 1.39844,-0.48437 0.47232,-0.0578 0.82199,-0.0803 0.83984,-0.0137 0.1482,0.55301 -4.41614,2.54853 -6.88086,3.00781 -3.27425,0.6101 -13.35713,3.13092 -13.49805,3.375 -0.28341,0.49088 3.95959,0.20922 4.97071,-0.33008 2.08117,-1.11002 9.65195,-2.7419 10.15625,-2.18945 0.29795,0.32641 0.83583,0.33096 1.46875,0.0117 0.54947,-0.27718 2.42118,-0.99225 4.16015,-1.5879 1.73902,-0.59563 3.23111,-1.20135 3.31446,-1.3457 0.0833,-0.14435 -0.4953,-0.50869 -1.28516,-0.81055 -0.70119,-0.26796 -1.13653,-0.52852 -1.32031,-0.78515 4.49158,-1.53426 7.32903,-2.31833 8.61328,-2.33594 -0.30308,0.30955 -0.44425,0.5738 -0.38867,0.78125 0.14357,0.53581 1.60037,0.10129 2.0039,-0.59766 0.20808,-0.3604 1.49554,-0.99487 2.86133,-1.41015 1.36579,-0.41528 2.63594,-1.01907 2.82227,-1.3418 0.34373,-0.59536 0.0811,-0.85359 -0.60742,-0.79101 0.41485,-0.26605 0.8321,-0.54289 1.22265,-0.78516 1.75359,-1.08777 4.59786,-2.86092 6.32227,-3.94141 1.72444,-1.08048 3.22797,-1.80709 3.33984,-1.61328 0.25912,0.44878 -3.06541,3.10742 -5.76562,4.61133 -1.13969,0.63476 -2.14094,1.41039 -2.22461,1.72266 -0.0837,0.31226 -3.4288,2.45294 -7.43555,4.75781 -4.13759,2.38016 -6.47722,3.61593 -9.56836,4.76953 -0.0816,-0.069 -0.26503,-0.0962 -0.53125,-0.0508 -0.41642,0.0711 -0.84477,0.28303 -0.95313,0.4707 -0.0257,0.0445 -0.0287,0.0822 -0.0176,0.11524 -1.98984,0.67635 -4.34653,1.37615 -7.67188,2.32031 -1.63846,0.46521 -4.20089,1.44861 -5.69531,2.18359 -1.49442,0.73498 -3.28703,1.45915 -3.98242,1.61133 -0.69535,0.15218 -1.60601,0.52192 -2.02539,0.82031 -0.70021,0.49818 -0.65961,0.54735 0.51757,0.59961 4.25193,0.18879 5.81317,0.46044 6.42774,1.11914 0.54774,0.58706 0.90984,0.53068 2.55859,-0.39453 2.59289,-1.45502 9.0317,-3.09994 10.5586,-2.69726 1.60624,0.42361 6.57819,-0.83478 7.5332,-1.90625 1.19916,-1.34541 4.27411,-3.15205 10.53906,-6.19336 3.50272,-1.7004 5.92184,-3.13149 6.04102,-3.57618 0.2229,-0.83187 3.41265,-2.56491 4.28906,-2.33007 0.31205,0.0836 0.63133,0.3644 0.70899,0.62304 0.28125,0.9364 0.83917,0.60225 3.10156,-1.84765 1.26634,-1.37133 3.66948,-3.34996 5.33984,-4.39649 1.67036,-1.04652 3.09633,-2.12124 3.16797,-2.38867 0.0716,-0.26743 1.56508,-1.30112 3.31836,-2.29687 1.75327,-0.99575 3.82808,-2.43933 4.61133,-3.20899 2.36833,-2.3273 3.99426,-1.95999 1.70312,0.38477 -0.73862,0.75591 -1.32983,1.55847 -1.3125,1.7832 0.0174,0.22473 0.92723,0.12361 2.02149,-0.22461 1.40309,-0.44651 2.0706,-0.91435 2.26367,-1.58789 0.38476,-1.34215 3.18067,-4.01982 7.24414,-6.9375 2.86803,-2.05936 4.05285,-3.27733 6.84375,-7.03125 8.88657,-11.95288 12.3726,-16.43739 12.98047,-16.70117 0.63906,-0.27733 1.08519,-1.62581 2.81836,-8.50977 1.08904,-4.32556 5.11975,-15.01538 5.98828,-15.88086 0.17587,-0.17524 0.92986,-2.30651 1.67578,-4.73828 0.74591,-2.43176 1.69418,-5.01268 2.10742,-5.73437 0.41325,-0.7217 0.9631,-2.10094 1.22266,-3.06446 0.38019,-1.41163 0.64018,-1.7501 1.33594,-1.74609 0.73733,0.004 0.95481,-0.33472 1.48632,-2.31836 0.34234,-1.27764 0.55851,-3.14601 0.48047,-4.15234 -0.16255,-2.09637 0.30191,-2.99161 1.40039,-2.69727 0.92445,0.24771 1.43253,-1.13641 0.63086,-1.71875 -0.39289,-0.28535 -0.37603,-1.01716 0.0605,-2.64648 0.33576,-1.25302 0.46797,-2.86587 0.29883,-3.63867 -0.1817,-0.83028 -0.0873,-1.80683 0.23437,-2.42774 0.29592,-0.57116 0.54684,-2.18483 0.55664,-3.58594 0.0242,-3.45946 0.51339,-5.07789 1.75196,-5.79297 1.31477,-0.75908 1.36527,-1.03035 0.53125,-2.8125 -0.90913,-1.9427 -1.09801,-4.64841 -0.57618,-8.22656 0.25779,-1.76759 0.19759,-5.31019 -0.15234,-9.00781 -0.35479,-3.74902 -0.40115,-6.67304 -0.12109,-7.59961 0.53456,-1.76866 0.28605,-6.67548 -0.42188,-8.32812 -0.27174,-0.63435 -0.63951,-2.54982 -0.8164,-4.25782 -0.42927,-4.14475 -3.44491,-13.00755 -4.84375,-14.23632 -0.58695,-0.51562 -1.60564,-1.97878 -2.26368,-3.25196 -0.23739,-0.45931 -0.42048,-0.88708 -0.5664,-1.28711 l -0.0137,-0.0625 c -0.1412,-0.63257 -0.22289,-0.9029 -0.3125,-1.22656 -0.2234,-1.64445 0.67511,-2.15855 2.29492,-0.50781 l 1.17773,1.20117 0.25977,-0.9668 c 0.15547,-0.58024 0.54139,-0.944 0.96679,-0.91406 0.60414,0.0426 0.60515,-0.13918 0.008,-1.24023 -0.42891,-0.79062 -1.96682,-2.12398 -3.97266,-3.44336 l -3.27344,-2.15235 -0.64062,-1.36914 c 0.0976,-0.9424 -1.5622,-5.83376 -2.13086,-6.16211 -0.32256,-0.1862 -1.4613,-2.04575 -2.53125,-4.13281 -1.06991,-2.08705 -2.50185,-4.64343 -3.18164,-5.67969 -0.15714,-0.23953 -0.31442,-0.54014 -0.47656,-0.8164 -0.7842,-1.56643 -1.26649,-2.7161 -1.13672,-2.79102 0.52561,-0.30349 3.82025,3.82291 4.96679,6.2207 1.5231,3.18536 6.87157,12.81721 7.16016,12.89454 0.58042,0.15551 -0.87151,-4.11066 -1.70117,-4.99805 -1.70766,-1.82652 -5.45663,-9.13086 -5.0293,-9.79883 0.25249,-0.39466 0.10798,-0.94731 -0.39258,-1.50781 -0.43458,-0.48661 -1.67857,-2.20893 -2.76562,-3.82617 -1.08706,-1.61729 -2.11643,-2.97771 -2.28711,-3.02344 -0.17069,-0.0457 -0.38614,0.64744 -0.47852,1.53906 -0.067,0.64722 -0.1786,1.09943 -0.33203,1.39063 -0.43732,-0.72856 -0.98697,-1.53375 -1.52929,-2.19336 -0.92975,-1.13078 -3.04673,-3.96296 -4.70313,-6.29493 -0.55228,-0.77753 -1.12346,-1.55846 -1.71289,-2.33984 2.04062,2.26308 3.4359,3.32671 3.98828,3.00781 0.50926,-0.29403 -0.33569,-1.66528 -1.16211,-1.88672 -0.42614,-0.11418 -1.42854,-1.25837 -2.22851,-2.54296 -0.79998,-1.2846 -1.76685,-2.41924 -2.14844,-2.52149 -0.17483,-0.0468 -0.31879,-0.0603 -0.43164,-0.0449 -0.49052,0.0669 -0.40224,0.69648 0.17968,1.66602 -8.25419,-10.35734 -19.51145,-20.81078 -31.60351,-29.3125 0.50656,-0.0716 1.24332,0.0299 2.26172,0.30273 1.36022,0.36446 2.34514,0.45618 2.27148,0.21094 -0.0715,-0.23812 -1.98983,-1.65381 -4.26367,-3.14453 -2.27379,-1.49072 -4.41277,-3.12722 -4.75195,-3.63672 -0.40785,-0.61279 -1.6154,-1.29246 -3.56836,-2.00977 -1.62398,-0.59639 -3.855,-1.71351 -4.95703,-2.48242 -1.10208,-0.76891 -2.76946,-1.80997 -3.70508,-2.3125 -0.93558,-0.5025 -1.88297,-1.16193 -2.10547,-1.4668 -0.22255,-0.30482 -0.98075,-0.74218 -1.68555,-0.9707 -0.70479,-0.22861 -1.87109,-0.61027 -2.59179,-0.84766 -0.81814,-0.26954 -1.55867,-0.90299 -1.97266,-1.6875 -0.85093,-1.61259 -4.57681,-3.27737 -7.51953,-3.35937 l -1.98438,-0.0547 3.11133,0.96094 c 2.91038,0.89828 3.11972,1.03325 3.22656,2.08203 0.0628,0.6167 0.0735,1.26764 0.0254,1.44726 -0.0482,0.17964 -1.48071,0.39453 -3.18359,0.47852 -2.82599,0.13944 -3.48186,0.0201 -7.51953,-1.38672 -6.15922,-2.14597 -14.22334,-4.06714 -16.05859,-3.82422 -0.41365,0.0548 -1.08394,0.0552 -1.82618,0.0137 -1.31204,-0.20539 -2.39047,-0.34912 -3.16992,-0.41602 -1.48508,-0.29834 -1.94006,-0.62311 -3.09375,-1.9668 -1.23516,-1.43862 -1.87801,-1.83455 -3.84179,-2.36718 -1.29678,-0.35177 -2.99822,-0.53741 -3.78125,-0.41211 -0.78299,0.12524 -3.12222,-0.0155 -5.19922,-0.3125 -4.87804,-0.69757 -4.90165,-0.7054 -4.39258,-1.40625 0.33892,-0.46661 0.22633,-0.58591 -0.55274,-0.58594 -0.53865,3e-5 -1.56929,-0.15694 -2.29101,-0.345705 -0.23371,-0.06157 -0.4678,-0.09474 -0.71094,-0.09961 z m 24.41016,2.273434 c -0.0802,0.006 -0.1622,0.0203 -0.24414,0.0449 -0.47949,0.14394 -0.50617,0.23789 -0.13282,0.48438 0.53282,0.35181 1.17055,0.10044 0.90625,-0.35742 -0.0731,-0.12664 -0.28859,-0.1893 -0.52929,-0.17188 z m 6.4707,0.0117 c -0.3233,-8e-4 -0.55125,0.044 -0.6543,0.14063 -0.38004,0.35629 -0.25051,0.63529 0.50196,1.08789 0.55669,0.33482 1.78332,1.11381 2.72656,1.73242 1.82982,1.20011 6.90195,2.34291 8.66992,1.95312 0.79747,-0.1758 0.75173,-0.3093 -0.47461,-1.37304 -1.56425,-1.35685 -8.50641,-3.53541 -10.76953,-3.54102 z m -73.71484,3.98242 c -0.66673,0.0149 -1.86513,0.14573 -3.07422,0.34571 -2.16032,0.35726 -2.98811,0.69344 -3.14453,1.27734 -0.41007,1.5303 -8.46067,4.72161 -10.51953,4.16992 -0.85428,-0.2289 -5.44202,2.38444 -7.22657,4.11719 -0.67191,0.65239 -1.28226,1.41427 -1.35742,1.69141 -0.2233,0.82342 1.41122,0.99192 2.42188,0.25 1.81088,-1.3293 3.22782,-1.96351 8.08203,-3.61914 2.69411,-0.91889 6.74443,-2.74935 9,-4.06641 2.25557,-1.3171 4.68398,-2.57285 5.39648,-2.79102 1.42077,-0.43498 1.85507,-1.09171 0.89258,-1.34961 -0.0844,-0.0226 -0.24846,-0.0303 -0.4707,-0.0254 z m 32.39257,6.42578 c -0.0303,0.0617 -0.0562,0.12533 -0.0762,0.19532 -0.19265,0.67583 -0.9395,0.93462 -3.94531,1.37109 -2.03873,0.296 -4.06818,0.78422 -4.50976,1.08399 -0.44159,0.29976 -1.49955,0.58737 -2.35157,0.63867 -0.85199,0.0513 -3.25285,0.73599 -5.33398,1.52343 -2.08115,0.78749 -4.16245,1.4228 -4.62695,1.41016 -0.75267,-0.0204 -0.76429,-0.10705 -0.10743,-0.78516 0.13057,-0.13478 0.21308,-0.239 0.29493,-0.34374 0.17168,0.0103 0.44227,-0.004 0.83984,-0.0449 2.03351,-0.20714 2.95381,-0.52884 2.8164,-0.98633 -0.0551,-0.18352 -0.28934,-0.27183 -0.63671,-0.27148 -0.57896,5.9e-4 -1.47364,0.24505 -2.38086,0.68945 -0.19107,0.0936 -0.29692,0.15782 -0.42383,0.22852 0.0379,-0.45183 -1.50268,0.0379 -4.76953,1.46875 0.0656,-0.0715 0.1289,-0.1439 0.14843,-0.2168 0.0974,-0.36365 0.97757,-1.29192 1.95704,-2.0625 1.39466,-1.09723 2.77379,-1.59937 6.35742,-2.32031 2.51665,-0.50629 5.83471,-0.90707 7.37304,-0.88867 1.53835,0.0183 4.44936,-0.18143 6.46876,-0.44531 1.10712,-0.14468 2.07688,-0.22008 2.90624,-0.24415 z m 51.66797,2.70118 c 0.7961,0.15054 2.01742,0.48562 3.75,1.05859 2.56705,0.84892 5.7998,2.03299 7.18555,2.63086 1.38571,0.59791 3.55278,1.36826 4.81445,1.71094 2.0427,0.55507 3.07783,1.34642 2.32813,1.77929 -0.17749,0.10247 -2.16022,-0.10011 -4.37695,-0.38867 -1.07899,-0.4367 -2.00353,-0.98826 -2.36915,-1.54297 -0.76015,-1.15325 -4.11203,-2.74004 -10.46093,-4.95117 -0.32034,-0.11156 -0.58222,-0.19826 -0.8711,-0.29687 z m -78.38281,4.11523 c -2.24221,0.96558 -4.64951,1.95418 -5.77539,2.34766 -1.33286,0.46581 -3.79002,1.50392 -5.46094,2.30664 -1.34656,0.6469 -3.27459,1.38546 -4.77539,1.85351 0.41299,-0.23338 0.79615,-0.43885 1.22656,-0.68945 6.24357,-3.63514 10.19687,-5.19455 14.70899,-5.80273 0.0266,-0.004 0.0498,-0.0116 0.0762,-0.0156 z m -34.67578,1.86914 c -0.91352,0.0446 -2.78875,0.75663 -3.64648,1.4336 -0.625,0.49323 -1.14131,0.89631 -1.14844,0.89453 -0.007,-0.002 0.60273,0.16158 1.35547,0.36328 1.63605,0.43837 3.37968,-0.33838 3.73437,-1.66211 0.13932,-0.52034 0.15515,-0.97121 0.0332,-1.00391 -0.0855,-0.0229 -0.19762,-0.0318 -0.32812,-0.0254 z m 44.08984,1.1211 c -0.51963,-0.0143 -0.99871,0.0849 -1.55664,0.29296 -1.31424,0.49014 -1.48033,0.70752 -1.61328,2.11133 -0.10875,1.14807 -0.3541,1.66068 -0.91797,1.91992 -0.85204,0.39172 -1.16237,1.00766 -0.58593,1.16211 0.20485,0.0549 1.89975,-0.26401 3.76757,-0.70703 1.86778,-0.44297 6.1375,-1.25183 9.48829,-1.79883 3.35073,-0.54698 6.43268,-1.18933 6.84765,-1.42773 0.66407,-0.38156 0.50524,-0.4681 -1.32422,-0.70898 -2.17622,-0.28654 -5.63812,0.24892 -8.10937,1.2539 -1.66461,0.67694 -6.45672,1.4899 -7.35938,1.24805 -0.92346,-0.24745 0.27871,-0.95985 2.86914,-1.69922 l 2.1836,-0.62305 -1.89063,-0.63867 c -0.71967,-0.24314 -1.27919,-0.37051 -1.79883,-0.38476 z m -50.82226,1.12109 -1.88477,0.98437 c -1.75496,0.9168 -2.13621,1.17917 -1.82812,1.26172 0.0675,0.0181 0.9303,-0.48023 1.91797,-1.10742 z m 165.71289,2.27539 c -0.32927,0.0804 0.78938,1.15308 3.59765,3.46484 3.26916,2.69119 4.0804,3.17843 4.24805,2.55274 0.14458,-0.53958 -6.35578,-5.65472 -7.61523,-5.99219 -0.10537,-0.0282 -0.18343,-0.0369 -0.23047,-0.0254 z m -121.96485,1.54102 c -1.21059,0.10594 -4.38636,1.01934 -5.0664,1.50976 -0.79301,0.57187 -0.99314,1.09635 -0.4707,1.23633 0.20619,0.0553 1.6729,-0.33726 3.25976,-0.87109 2.69447,-0.90634 3.67677,-1.59531 2.66211,-1.86719 -0.0797,-0.0214 -0.21182,-0.0229 -0.38477,-0.008 z m -8.15429,2.96289 c -0.50492,0.0228 -1.5972,0.47036 -3.48633,1.39843 -2.15769,1.06 -3.63367,1.49504 -4.70117,1.38672 -1.28809,-0.1307 -1.62553,0.0194 -1.96289,0.8711 -0.2254,0.56889 -0.68451,0.97949 -1.02735,0.91992 -0.34083,-0.0593 -0.76037,-0.12338 -0.93359,-0.14258 -0.42045,-0.0461 -0.58956,0.6509 -0.24609,1.01563 0.68804,0.73056 12.37455,-3.9188 12.67578,-5.04297 0.0753,-0.28094 -0.0154,-0.41991 -0.31836,-0.40625 z m -47.26172,0.6875 c -0.62607,-0.16776 -5.66776,3.17119 -5.85742,3.8789 -0.10216,0.38139 -1.69357,2.05834 -3.53711,3.72656 -1.84354,1.6682 -4.06877,3.83404 -4.94336,4.81446 -0.87454,0.98037 -2.20762,2.21486 -2.96289,2.74219 -0.75527,0.52732 -2.11088,1.99166 -3.01367,3.2539 -0.90279,1.26229 -3.2248,4.20507 -5.15821,6.54102 -10.31438,12.46177 -19.91093,30.08384 -26.10156,47.92578 -2.5993,7.49149 -2.61954,7.85387 -0.17773,3.08594 0.83003,-1.6208 1.67145,-2.9031 1.87109,-2.84961 0.19964,0.0535 0.0966,1.09596 -0.23047,2.3164 -0.32702,1.22049 -0.41691,2.26785 -0.19922,2.32618 0.63489,0.17011 1.44055,-1.64392 1.76953,-3.98243 0.16753,-1.19085 0.63832,-3.86115 1.04688,-5.93359 0.67793,-3.43881 0.8439,-3.84311 1.89648,-4.63086 0.63436,-0.47477 1.28443,-1.35456 1.44532,-1.95508 0.16092,-0.60047 0.80345,-1.91134 1.42578,-2.91211 0.62232,-1.00073 1.26966,-2.3298 1.43945,-2.95312 0.16962,-0.62337 0.78717,-1.91705 1.37305,-2.875 0.58588,-0.95796 1.97826,-3.53996 3.09375,-5.73828 3.94018,-7.76501 9.42354,-16.34142 10.87304,-17.00782 0.3538,-0.16263 1.17052,-1.09664 1.81446,-2.07421 0.64393,-0.97755 1.42684,-1.80499 1.74023,-1.8379 0.82504,-0.0866 6.60947,-8.72981 6.56055,-9.80273 -0.0463,-1.01693 2.17209,-3.37047 4.18554,-4.44336 0.72004,-0.38364 1.38716,-0.99468 1.48438,-1.35742 0.28768,-1.07374 1.67819,-1.93594 2.68555,-1.66602 0.8147,0.2183 0.97162,0.0711 1.1914,-1.11914 0.20348,-1.10212 0.84671,-1.84928 3.29297,-3.82031 2.86074,-2.305 3.78872,-3.43891 2.99219,-3.65234 z m 174.32812,1.39843 c 0.38926,0.18688 0.79137,0.37354 1.15235,0.55079 2.69941,1.32548 3.21293,1.65959 3.63086,2.57421 -1.29608,-0.94109 -2.3845,-1.71056 -2.50977,-1.74414 -0.66172,-0.18246 -1.56554,-0.77322 -2.27344,-1.38086 z m 11.57032,3.09766 c -0.1901,-0.0134 -0.14487,0.10763 0.082,0.35547 0.31926,0.34869 1.2482,0.87455 2.06445,1.16992 0.81623,0.29541 1.76743,0.64067 2.11328,0.76563 0.34584,0.12504 1.51554,1.20751 2.59961,2.40625 1.08406,1.19876 2.33745,2.38765 2.78516,2.64257 1.27793,0.72757 6.17978,5.90558 8.16992,8.62891 1.69383,2.31778 3.71779,4.0054 3.91602,3.26562 0.0485,-0.18108 -0.41508,-1.17028 -1.03125,-2.19921 -1.86502,-3.11425 -13.63613,-14.8006 -15.37891,-15.26758 -0.40497,-0.10851 -0.91702,-0.48761 -1.13672,-0.84375 -0.31224,-0.50594 -0.46828,-0.55018 -0.71289,-0.20313 -0.21353,0.30298 -0.89287,0.21511 -2.14063,-0.27734 v -0.002 c -0.71483,-0.28214 -1.13998,-0.42805 -1.33007,-0.44141 z m -6.78907,6.87109 c 0.0212,0.0142 0.0406,0.0239 0.0625,0.0391 -0.0204,-0.0135 -0.042,-0.0256 -0.0625,-0.0391 z m -15.29296,4.58204 c -0.20431,-0.007 -0.39104,0.0251 -0.58594,0.0879 -0.73591,0.23704 -0.97976,0.54049 -1.11719,1.39062 -0.19659,1.21604 0.33472,1.84047 2.99805,3.52539 1.75157,1.10811 1.85662,1.12112 2.33203,0.3086 0.45274,-0.77383 0.64914,-0.77525 2.19922,-0.008 0.956,0.47328 1.81444,1.14605 1.95703,1.53125 0.19625,0.53042 0.6634,0.7897 2.05664,1.14649 0.99152,0.2538 1.74837,0.27027 1.68164,0.0371 -0.0667,-0.23317 -1.37283,-1.44773 -2.90234,-2.69922 -1.52955,-1.25151 -4.0136,-3.0095 -5.52149,-3.90625 -1.70373,-1.01316 -2.48473,-1.39268 -3.09765,-1.41406 z m 21.40625,0.0898 c 0.13345,0.0545 0.28047,0.12027 0.48242,0.22461 0.59117,0.30545 2.22091,1.53987 3.62304,2.74219 2.14357,1.83803 2.47703,2.14851 2.27344,3.1582 -2.37427,-2.44125 -4.44537,-4.43831 -6.3789,-6.125 z m -13.15821,9.76367 c -0.45956,-0.008 0.0984,1.33045 0.99414,2.12695 0.52594,0.46765 1.46806,1.42184 2.09375,2.1211 1.06156,1.18632 2.65881,2.01011 2.93946,1.51562 0.13706,-0.24069 -1.92098,-3.05055 -3.05274,-4.16797 -0.39842,-0.3934 -1.06492,-0.83293 -1.48242,-0.97656 -0.41754,-0.14364 -0.97142,-0.38118 -1.23047,-0.52734 -0.10915,-0.0616 -0.19607,-0.0906 -0.26172,-0.0918 z m 14.89063,2.39649 c -0.0673,0.0131 -0.11932,0.0438 -0.15039,0.0977 -0.19515,0.338 1.20166,1.82458 1.61132,1.71485 0.14273,-0.0382 0.25425,-0.29286 0.2461,-0.56446 -0.0156,-0.52128 -1.23596,-1.33958 -1.70703,-1.24804 z M 360.67773,165.5 c -0.10506,-0.007 -0.1804,0.0418 -0.23632,0.13867 -0.23903,0.414 0.90798,1.90987 2.38476,3.10938 1.73206,1.40684 1.68294,0.45545 -0.0742,-1.43555 -1.17113,-1.26035 -1.75902,-1.79025 -2.07422,-1.8125 z m 6.39844,0.65039 c -0.1981,-0.0236 -0.38331,0.0486 -0.5664,0.21094 -0.49105,0.43545 0.64429,1.54615 1.59179,1.55664 0.72563,0.008 0.73977,-0.0688 0.14453,-0.82422 -0.47075,-0.59738 -0.83974,-0.90408 -1.16992,-0.94336 z m 17.37305,0.56055 c 0.71447,0.45942 1.90089,1.93835 2.66016,3.29492 -0.72788,-1.02803 -1.62281,-2.13132 -2.66016,-3.29492 z m 13.39062,2.87695 c -0.22506,-0.0603 -0.25417,0.22017 -0.0644,0.63281 0.18705,0.4069 0.52224,0.7882 0.74414,0.84766 0.22506,0.0603 0.25416,-0.22013 0.0645,-0.63281 -0.18706,-0.40686 -0.52224,-0.7882 -0.74414,-0.84766 z m -8.61718,4.36328 c 0.95605,1.53557 2.22238,3.45184 3.57812,5.37891 2.51105,3.56918 5.30436,8.01115 6.20703,9.87109 0.90268,1.85995 2.19526,4.34237 2.87305,5.51563 0.67779,1.17326 1.23759,2.83793 1.24414,3.70117 0.007,0.86324 0.5542,2.91693 1.2168,4.5625 1.65711,4.11541 2.78025,8.39745 4.10937,15.66601 0.62177,3.40026 1.23533,6.30983 1.36328,6.4668 1.41078,1.73117 1.38243,5.42824 0.22266,6.42578 -0.30196,-1.45651 -0.68657,-3.13723 -1.17969,-5.11914 -1.00911,-4.05579 -1.50073,-7.17223 -1.45898,-9.25976 0.079,-3.94969 -0.42451,-6.15174 -1.94336,-8.4961 -0.65677,-1.01368 -1.51356,-3.24934 -1.90235,-4.96875 -0.38882,-1.71942 -1.14135,-3.79706 -1.67382,-4.61523 -0.53245,-0.81813 -1.76658,-3.54249 -2.74219,-6.05469 -0.97558,-2.51219 -2.25412,-5.2614 -2.8418,-6.10937 -0.58765,-0.84793 -1.36092,-2.3716 -1.71875,-3.38672 -0.46506,-1.31924 -1.02528,-2.08821 -1.96289,-2.69532 -1.57083,-1.01708 -3.43197,-4.11704 -3.23242,-5.38476 0.0667,-0.42343 0.002,-0.93171 -0.1582,-1.49805 z m -19.5293,0.17188 c -0.16424,-0.0314 -0.16247,0.2987 0.11914,1.01172 0.21528,0.54508 0.37006,1.40764 0.34375,1.91601 -0.0269,0.51983 0.60432,1.72627 1.44141,2.75781 0.81865,1.00881 2.186,3.1102 3.03906,4.66993 0.85302,1.55967 1.984,3.51181 2.51367,4.33789 0.52968,0.82604 1.1767,2.22203 1.4375,3.10351 0.2608,0.88148 1.46705,4.17328 2.67969,7.31446 1.8246,4.72654 2.84801,6.66919 5.94336,11.26367 2.05707,3.05338 4.35381,6.62899 5.10351,7.94726 0.7497,1.31831 1.50789,2.48143 1.68555,2.58399 0.69817,0.4031 0.85622,-0.86153 0.26758,-2.15039 -0.47999,-1.05099 -0.47475,-1.53043 0.0254,-2.10938 0.92283,-1.06826 0.32457,-3.53046 -1.9668,-8.10156 -2.21585,-4.42038 -4.99662,-8.65097 -9.76953,-14.86328 -1.87876,-2.44537 -3.79703,-5.35751 -4.26367,-6.47071 -0.46669,-1.11316 -1.7054,-3.43744 -2.75195,-5.16406 -1.30532,-2.15356 -1.7897,-3.33438 -1.54297,-3.76172 0.31034,-0.53752 0.14419,-0.70988 -1.20899,-1.25586 -1.18603,-0.47848 -1.72594,-0.93536 -2.21679,-1.87304 -0.38346,-0.7325 -0.71467,-1.12481 -0.87891,-1.15625 z m -206.45508,0.14257 c -0.12072,0.0108 -0.29257,0.21663 -0.59766,0.625 -0.77205,1.03352 -0.85076,1.5954 -0.27343,1.97657 0.58062,0.38334 1.40548,-1.08355 1.15625,-2.05664 -0.0954,-0.37262 -0.16444,-0.55569 -0.28516,-0.54493 z m -7.00781,3.28907 c -0.11672,-0.0174 -0.25855,-0.006 -0.39649,0.0352 -0.60512,0.18177 -1.17703,2.0804 -0.66796,2.2168 0.39964,0.10708 1.53727,-1.73171 1.3125,-2.12109 -0.0392,-0.0678 -0.13133,-0.11347 -0.24805,-0.13086 z m 220.79687,0.49609 c -0.0644,0.004 -0.11457,0.0356 -0.15039,0.0977 -0.052,0.09 0.32894,0.81663 0.84571,1.61328 0.5168,0.79666 1.07157,2.23375 1.23242,3.19531 0.18054,1.07892 0.9676,2.68405 2.05859,4.19141 2.7505,3.80025 3.66804,5.1772 4.75,7.1289 l 1.00391,1.8086 -0.37305,-1.71875 c -0.20476,-0.94561 -1.00052,-2.58343 -1.76758,-3.63867 -0.76703,-1.0552 -1.63289,-2.74427 -1.92578,-3.75391 -0.29289,-1.00964 -1.43466,-3.28801 -2.53711,-5.0625 -1.55314,-2.4999 -2.68599,-3.88625 -3.13672,-3.86133 z m -210.92578,0.48047 c -0.25062,-0.0486 -0.91246,0.62183 -1.73047,1.92578 -1.29232,2.06004 -1.53622,2.70147 -1.07812,2.82422 0.48951,0.13116 1.70426,-1.45362 2.52734,-3.29492 0.42234,-0.94482 0.47618,-1.41732 0.28125,-1.45508 z m -11.64844,1.48828 c -0.0248,-6e-5 -0.0718,0.0318 -0.14062,0.10156 -0.27545,0.27889 -0.58557,0.81737 -0.68945,1.19532 -0.10379,0.37796 0.12076,0.14904 0.5,-0.50782 0.28439,-0.49249 0.4046,-0.78889 0.33007,-0.78906 z m 6.44922,7.8125 c -0.28407,-0.0743 -2.596,2.8021 -3.42968,4.26758 -0.29352,0.51591 -0.55928,1.32018 -0.5918,1.78711 -0.0325,0.46697 -0.12453,1.09893 -0.20313,1.4043 -0.26482,1.02934 1.23158,-0.0106 1.88282,-1.3086 0.33455,-0.66685 1.0533,-1.89401 1.59765,-2.72656 0.92351,-1.41251 1.32748,-3.27213 0.74414,-3.42383 z m -12.08593,3.33594 c -1.12674,0.12113 -2.00349,2.83975 -1.41016,4.68164 0.29562,0.91774 0.33244,0.93428 0.72656,0.33789 0.71294,-1.07877 1.04953,-2.02675 1.24024,-3.48828 0.10299,-0.78935 -0.0412,-1.45962 -0.32813,-1.51953 -0.077,-0.016 -0.1534,-0.0198 -0.22851,-0.0117 z m 5.14453,1.55859 c -0.0263,-0.0108 -0.0525,-0.009 -0.0801,0.008 -0.22045,0.13229 -1.10691,1.80332 -1.96875,3.71289 -0.86185,1.9096 -1.97985,4.93647 -2.48438,6.72656 -0.75999,2.69675 -0.81867,3.40537 -0.34765,4.13476 0.44464,0.68852 0.82029,0.85425 1.72851,0.76172 1.29914,-0.13234 1.7945,-0.84762 2.78907,-4.03711 0.65409,-2.0976 0.63822,-2.20683 -0.32422,-2.4707 -0.9166,-0.25128 -0.96991,-0.45219 -0.60938,-2.25 0.22232,-1.10878 0.67203,-2.17213 1.02735,-2.42383 0.48928,-0.34648 0.62825,-0.89733 0.61132,-2.42187 -0.0106,-0.94932 -0.15752,-1.66486 -0.34179,-1.74024 z m 240.47851,14.48633 c -0.19047,0.0486 -0.0821,0.3337 0.32617,0.91016 0.39933,0.56401 0.46451,0.55598 0.4004,-0.0547 -0.0422,-0.40166 -0.23934,-0.77503 -0.4375,-0.82813 -0.12971,-0.0348 -0.22558,-0.0435 -0.28907,-0.0273 z m 20.57032,0.88281 c -0.0614,-0.01 -0.12539,-0.003 -0.19336,0.0176 -0.84199,0.2529 -0.75843,1.55664 0.28125,4.35938 1.2584,3.39243 1.94498,2.90716 1.17382,-0.83008 -0.53579,-2.59659 -0.83177,-3.47687 -1.26171,-3.54688 z m -290.02149,8.59766 c -0.21408,-0.0574 -0.5809,0.61319 -0.8164,1.49219 -0.30172,1.12602 -0.23207,1.91326 0.23632,2.66211 0.66047,1.05583 0.65554,1.08229 -0.87109,4.22461 -1.33803,2.75419 -1.58491,3.61708 -1.90039,6.66796 -0.19924,1.92701 -0.16614,3.88267 0.0723,4.34766 0.23846,0.46504 0.537,1.6176 0.66407,2.56055 0.12711,0.94291 0.3439,1.64836 0.48242,1.56836 0.13847,-0.0799 0.40512,-1.82813 0.5918,-3.88672 0.18663,-2.05856 0.79482,-6.88036 1.35156,-10.71289 0.97612,-6.71892 1.01784,-8.70187 0.18945,-8.92383 z m 23.43555,1.33789 c -0.0817,-0.002 -0.17617,0.17769 -0.23438,0.54492 -0.0561,0.35377 0.0152,0.612 0.15625,0.57422 0.14111,-0.0378 0.24838,-0.29094 0.24024,-0.5625 -0.0111,-0.36934 -0.0804,-0.55417 -0.16211,-0.55664 z m 243.53711,5.11133 c -0.1119,-0.005 -0.22604,0.0163 -0.33008,0.0723 -0.83366,0.44856 0.54924,12.23232 1.5,12.78125 0.6336,0.36579 0.64043,-0.59431 0.0254,-3.71093 -0.43904,-2.22481 -0.47651,-3.67292 -0.11719,-4.61914 0.43357,-1.14176 0.37919,-1.48664 -0.31445,-2.00196 -0.46333,-0.34426 -0.72587,-0.86231 -0.58789,-1.16015 0.13726,-0.29608 0.29958,-0.66522 0.35937,-0.81836 0.10849,-0.27889 -0.19945,-0.52908 -0.53515,-0.54297 z m 7.27734,11.42773 c -0.16485,-0.045 -0.27241,0.0622 -0.27148,0.35938 0.002,0.70845 0.43598,4.30024 0.60547,5.01367 0.0689,0.29001 0.14583,0.0921 0.17187,-0.43945 0.026,-0.53156 0.2645,-1.34213 0.5293,-1.80079 0.27631,-0.47858 0.28663,-1.2507 0.0234,-1.8125 -0.35003,-0.74717 -0.78385,-1.24534 -1.0586,-1.32031 z m 20.16211,1.58789 c -0.53107,0.1595 -0.59976,0.47321 -0.47461,2.16992 0.11571,1.56859 0.89904,1.82163 1.47852,0.47852 0.40263,-0.93321 -0.32498,-2.85236 -1.00391,-2.64844 z m -8.74023,1.55664 c 0.92361,2.90491 1.63691,6.40766 1.6582,8.69727 0.0173,1.86363 0.0765,4.28673 0.13086,5.38672 0.0402,0.81456 -0.0623,1.71694 -0.26172,2.58398 -0.0388,-0.23679 -0.0802,-0.47426 -0.10742,-0.71289 -0.1621,-1.4201 -0.62791,-4.11745 -1.03516,-5.99609 -0.82918,-3.82536 -1.06542,-8.65634 -0.47461,-9.67969 0.04,-0.0693 0.061,-0.18263 0.0899,-0.2793 z m -17.30274,0.33399 c -0.0812,0.0196 -0.15497,0.0829 -0.21875,0.19336 -0.10069,0.17438 -0.10289,1.60736 -0.004,3.18359 0.16797,2.67638 0.55532,3.73901 1.05078,2.88086 0.3114,-0.53937 0.28578,-4.48899 -0.0352,-5.33398 -0.24559,-0.64664 -0.54929,-0.98272 -0.79297,-0.92383 z m 6.25586,2.59961 c -0.10551,-0.0609 -0.2032,3.78009 -0.11328,4.44531 0.0153,0.11314 0.17418,0.16716 0.35352,0.11914 0.17935,-0.0481 0.22795,-1.0782 0.10742,-2.28906 -0.1205,-1.21081 -0.27773,-2.2349 -0.34766,-2.27539 z m 19.80469,1.08984 c -0.11579,0.0162 -0.12857,0.20761 -0.11133,0.58594 0.0757,1.6611 1.26247,5.76873 1.46094,5.05664 0.53529,-1.92054 0.23024,-4.47373 -0.61914,-5.17383 -0.395,-0.32556 -0.61469,-0.48493 -0.73047,-0.46875 z m -25.97461,4.07227 c -0.0874,0.0143 -0.17182,0.0793 -0.24219,0.20117 -0.10003,0.17326 -0.22303,1.79541 -0.27539,3.60547 -0.0524,1.81 -0.35805,5.89927 -0.67773,9.08593 -0.31968,3.18663 -0.48505,6.14963 -0.36914,6.58594 0.18553,0.69824 0.30065,0.57493 0.96679,-1.0332 0.7924,-1.91294 1.15025,-5.19823 0.83789,-7.69531 -0.21039,-1.68201 0.21941,-6.24635 0.66016,-7.00977 0.45093,-0.78101 0.80642,0.48652 0.84766,3.02734 l 0.0332,2.14258 1.04492,-1.5664 c 0.79449,-1.19276 1.00909,-1.91684 0.90235,-3.03516 -0.12574,-1.31716 -0.28266,-1.52246 -1.5293,-1.98633 -1.01953,-0.37939 -1.42685,-0.72761 -1.52539,-1.30469 -0.11167,-0.65398 -0.41176,-1.06056 -0.67383,-1.01757 z m -272.08008,6.33007 c -0.53664,0.10587 -0.66935,2.09835 -0.41016,6.0879 0.44612,6.86623 1.05052,11.71697 1.47266,11.83007 0.92948,0.24906 1.05537,-1.23587 0.59375,-7.00976 -0.27048,-3.3834 -0.54358,-6.84774 -0.60742,-7.69727 -0.1702,-2.26543 -0.31117,-2.8225 -0.79297,-3.14062 -0.0932,-0.0615 -0.1792,-0.0854 -0.25586,-0.0703 z m 298.74219,2.73829 c -0.23438,0.0704 -0.42897,0.51754 -0.43164,0.99218 -0.007,1.18794 0.24884,1.14831 0.58008,-0.0879 0.15215,-0.56785 0.0859,-0.97466 -0.14844,-0.90429 z m -1.82422,8.49804 c -0.11013,0.0566 -0.17059,0.41397 -0.29102,1.12891 -0.16338,0.96996 -0.0251,1.53961 0.42774,1.75781 0.95031,0.45787 1.24281,-0.9802 0.44922,-2.20898 -0.31665,-0.49031 -0.47581,-0.73433 -0.58594,-0.67774 z m -7.78906,0.47461 c 0.2309,0.033 0.32035,0.25109 0.33398,0.69922 -0.12506,2.2195 -0.34973,4.64773 -0.57812,6.0918 -0.26321,1.66418 -0.85201,4.23028 -1.48243,6.7793 -0.0867,-0.5643 -0.17242,-1.26325 -0.25976,-2.1836 -0.36292,-3.8239 -0.28508,-5.28445 0.46094,-8.55859 0.46269,-2.03074 0.75113,-2.68417 1.23047,-2.80078 0.11715,-0.0285 0.21396,-0.0389 0.29492,-0.0274 z m -273.625,13.03321 c -0.16654,0.0355 -0.2972,0.39916 -0.26953,1.0625 0.14799,3.54702 1.27219,5.43313 2.54687,4.26953 0.77662,-0.70893 0.67392,-1.11617 -0.65234,-2.57422 -0.56177,-0.61761 -1.0778,-1.4533 -1.14649,-1.85547 -0.11025,-0.64571 -0.31197,-0.93786 -0.47851,-0.90234 z m 262.94922,0.77929 c 0.0613,0.0357 0.0847,0.16441 0.0918,0.40039 0.0187,0.62486 -0.56823,0.98264 -0.71484,0.43555 -0.0479,-0.17887 0.0888,-0.48236 0.30469,-0.67383 0.15785,-0.13997 0.25707,-0.19778 0.31836,-0.16211 z m 15.53711,8.17969 c -0.0446,0.0332 -0.12086,0.23524 -0.23243,0.58984 -0.20704,0.65804 -0.96452,2.01133 -1.68359,3.00782 -1.89751,2.62956 -2.6984,5.7186 -1.85938,7.17187 l 0.66016,1.14258 0.7168,-1.53125 c 0.94878,-2.02921 2.1752,-6.71493 2.3789,-9.08594 0.0807,-0.93962 0.0939,-1.3503 0.0195,-1.29492 z m -289.62696,1.25391 c -0.0806,0.008 -0.14604,0.0687 -0.17578,0.17968 -0.0594,0.2219 0.0434,0.5632 0.22852,0.75977 0.18512,0.19661 0.38583,0.17701 0.44531,-0.0449 0.0595,-0.22189 -0.0434,-0.56511 -0.22852,-0.76172 -0.0926,-0.0983 -0.18891,-0.14115 -0.26953,-0.13281 z m 265.73047,7.30468 -0.21875,3.0586 c -0.11999,1.68233 -0.12205,3.1815 -0.006,3.33203 0.11625,0.1505 -0.4029,1.33669 -1.15234,2.63476 -1.06323,1.84159 -1.47069,2.29668 -1.85938,2.07227 -0.29652,-0.17122 -0.31968,-0.96758 -0.0566,-1.9668 0.24306,-0.92312 0.69172,-2.80222 0.99805,-4.17578 0.30634,-1.3736 0.94799,-3.05056 1.42578,-3.72656 z m 8.43164,5.96485 c -3.59685,11.52082 -5.57725,16.76065 -8.06445,21.28515 -1.32768,2.41518 -2.88244,4.79805 -3.45508,5.29493 -0.47448,0.41169 -1.42895,1.68224 -2.40234,3.11523 -0.0948,-0.0298 -0.22711,-0.0626 -0.26758,-0.0859 -0.15192,-0.0877 6.2e-4,-1.44546 0.33984,-3.01758 0.32912,-1.52545 0.56941,-2.36 1.15625,-3.45117 1.39942,-0.87249 6.28372,-8.14029 6.83594,-10.20117 0.18024,-0.67265 0.20995,-0.95187 0.0293,-0.98242 1.38644,-2.56642 2.37121,-4.71391 2.48437,-5.57813 0.10126,-0.77319 0.63744,-2.4071 1.19141,-3.63281 0.76713,-1.6972 1.09037,-2.16284 2.15234,-2.74609 z m -264.50781,11.26562 c -0.56857,0.0698 -0.67944,0.94625 -0.0488,1.4043 1.02509,0.74459 1.34902,0.65762 1.125,-0.30078 -0.1186,-0.50745 -0.48162,-0.99298 -0.80664,-1.08008 -0.0991,-0.0265 -0.18831,-0.0334 -0.26953,-0.0234 z m 251.47266,3.60157 c 0.47087,-0.0891 -0.20776,1.32137 -2.03907,4.10937 -1.40023,2.13174 -3.26926,4.78957 -4.15234,5.90625 -0.88311,1.11663 -2.11215,2.90283 -2.73242,3.96875 -0.0886,0.15222 -0.17213,0.25201 -0.25977,0.38867 -0.65004,0.58522 -1.37667,1.23705 -1.73047,1.5625 -7.4e-4,6.9e-4 -0.001,0.001 -0.002,0.002 -0.0869,-0.044 -0.16005,-0.11947 -0.19922,-0.26563 -0.10489,-0.39159 2.87813,-7.56644 3.87891,-9.33008 0.45457,-0.80105 0.96204,-1.38038 1.12695,-1.28515 0.3952,0.22815 1.7004,-0.82547 4.02148,-3.25 1.10979,-1.15925 1.80537,-1.75321 2.0879,-1.80664 z m -5.0625,2.12695 c 0.0769,-0.0108 -0.0894,0.36467 -0.45508,0.99805 -0.4876,0.84454 -0.75424,1.15083 -0.5918,0.68164 0.16245,-0.46924 0.56159,-1.15989 0.88672,-1.53516 0.0813,-0.0938 0.13451,-0.14094 0.16016,-0.14453 z m -9.70508,13.01953 c 0.0702,-0.007 0.13007,0.002 0.17383,0.0273 0.43938,0.2537 -0.33418,1.50328 -0.94141,1.52149 -0.72733,0.0218 -0.73061,-0.469 -0.01,-1.12696 0.26137,-0.2386 0.56671,-0.39963 0.77735,-0.42187 z m -3.64649,1.53516 -0.14257,1.13281 c -0.0776,0.62258 -0.57555,2.11692 -1.10743,3.32226 -1.11121,2.5182 -2.96652,4.26262 -5.30859,4.99219 -1.37722,0.42904 -1.39836,0.45923 -1.02734,1.31055 0.37139,0.85215 0.31368,0.92596 -2.71485,3.54883 -3.87374,3.35475 -5.46128,4.41228 -6.95312,4.62695 -1.21434,0.17473 -2.66171,0.91605 -3.0293,1.55273 -0.42764,0.7407 0.82392,0.92272 1.50586,0.21875 0.70089,-0.72351 1.51515,-0.72506 1.09766,-0.002 -0.50127,0.86821 -5.38334,3.59427 -6.08985,3.40039 -0.41633,-0.11424 -0.86053,-0.0284 -0.98633,0.18945 -0.14053,0.24341 0.0879,0.46504 0.59375,0.57618 0.72939,0.16023 0.73551,0.2778 0.0547,1.02539 -0.42265,0.46408 -1.94498,1.64877 -3.38281,2.63281 -2.58743,1.77085 -2.62737,1.78187 -3.95117,1.01758 -1.1634,-0.67169 -1.49513,-0.67166 -2.55274,0.004 -1.97198,1.2598 -1.19761,-0.11793 1.06836,-1.90039 1.14085,-0.89741 2.59578,-2.15184 3.23438,-2.78906 0.63856,-0.63724 2.15455,-1.70776 3.36718,-2.37891 2.21067,-1.22359 3.5284,-2.26025 9.67969,-7.60742 2.00085,-1.73933 4.22047,-3.27767 5.61133,-3.88867 1.99933,-0.87815 2.37415,-1.19795 2.85742,-2.43359 0.36839,-0.94202 1.43604,-2.29627 3.16211,-4.01172 1.43334,-1.42453 3.14886,-3.02888 3.81055,-3.56446 z m -86.33203,38.3789 c -0.13076,-0.0294 -0.39783,0.0333 -0.81445,0.1875 -0.6114,0.22616 -0.61895,0.29019 -0.0469,0.38086 0.37628,0.0596 0.76262,-0.0297 0.85938,-0.19726 0.12667,-0.2194 0.13272,-0.34169 0.002,-0.3711 z m -5.86328,6.61719 c -0.60665,-0.005 -1.37665,0.004 -2.3457,0.0234 -4.64781,0.0933 -5.13025,0.18186 -4.11914,0.76562 1.54229,0.89044 7.854,0.71147 8.40234,-0.23828 0.22481,-0.38939 -0.11754,-0.53473 -1.9375,-0.55078 z m -53.04883,0.66992 c -0.28255,-0.006 -0.4996,0.0801 -0.65429,0.25977 -0.64921,0.7541 0.59092,1.37035 1.90429,0.94726 1.04812,-0.33762 1.04679,-0.33965 -0.19726,-0.9082 -0.42196,-0.19284 -0.77019,-0.29238 -1.05274,-0.29883 z m 119.4961,0.0195 c -0.0686,-0.008 -0.13482,-0.007 -0.20118,0.004 -0.44237,0.0716 -0.85875,0.56915 -1.56445,1.66797 -0.47828,0.74469 -1.19102,1.50096 -1.58398,1.68164 -1.26189,0.58013 -0.97415,1.14332 0.36914,0.72265 3.59146,-1.12475 5.21312,-2.79331 3.67187,-3.77929 -0.26409,-0.16896 -0.48557,-0.27332 -0.6914,-0.29688 z m -111.59766,3.79688 c -0.41471,-0.0284 -0.2353,0.22111 0.54883,0.67383 0.48026,0.27727 0.86822,0.3147 0.86133,0.084 -0.007,-0.23074 -0.36505,-0.51645 -0.79688,-0.63477 -0.27016,-0.0741 -0.47504,-0.11358 -0.61328,-0.12304 z m 9.76367,2.88476 c -1.12483,0.0219 -1.98378,0.13125 -1.68359,0.3086 1.61923,0.95663 4.02191,1.30026 4.86719,0.69726 0.78614,-0.56085 0.79551,-0.64161 0.0976,-0.79492 -0.766,-0.16829 -2.15642,-0.23281 -3.28125,-0.21094 z m 6.51758,0.7793 c -1.04255,-0.0495 -1.24781,0.54209 -0.30078,1.29102 0.752,0.5947 2.6802,0.40082 2.66016,-0.26758 -0.0157,-0.52284 -0.28478,-0.66073 -1.86133,-0.96094 -0.18219,-0.0347 -0.34911,-0.0554 -0.49805,-0.0625 z m 26.80273,2.78516 c -0.50854,0.001 -1.1106,0.0358 -1.8125,0.10156 -3.3983,0.31836 -3.12282,1.0617 0.47071,1.27148 2.8534,0.16657 3.58635,0.0705 3.57031,-0.46484 -0.0186,-0.6217 -0.70287,-0.91238 -2.22852,-0.9082 z m -39.54882,2.3789 c -0.13696,-8.5e-4 -0.13173,0.0496 0.0488,0.15235 0.36116,0.20553 0.99661,0.37623 1.41211,0.3789 0.41551,0.003 0.12041,-0.16494 -0.65625,-0.37304 -0.38821,-0.10406 -0.66773,-0.15736 -0.80468,-0.15821 z m 3.84961,0.57227 c -0.0843,0.003 -0.13317,0.0191 -0.14063,0.0469 -0.0297,0.11095 1.32312,0.5706 3.00586,1.02149 2.26729,0.6075 3.05051,0.67818 3.02734,0.27148 -0.0407,-0.72227 -1.65306,-1.40193 -2.35937,-0.99414 -0.30519,0.1762 -1.24467,0.1361 -2.08789,-0.0898 -0.63242,-0.16947 -1.19234,-0.26562 -1.44531,-0.25586 z m 11.51562,1.08789 c -0.33786,0.0142 -0.6948,0.0482 -1.08203,0.0996 -0.83654,0.11111 -1.48222,0.44366 -1.46484,0.7539 0.0752,1.33174 3.39232,1.58166 5.23046,0.39454 0.85864,-0.55451 0.86727,-0.59601 0.14844,-0.83594 -0.97519,-0.32554 -1.81845,-0.45458 -2.83203,-0.41211 z m 10.00781,1.0664 c -0.26229,1.4e-4 -0.42609,0.0108 -0.46484,0.0332 -0.50595,0.29209 0.001,1.16021 0.80273,1.375 0.4307,0.11541 0.74184,0.35825 0.69336,0.53906 -0.10456,0.39033 -2.99736,0.97491 -4.01367,0.81055 -0.39118,-0.0633 0.0716,0.16988 1.0293,0.51953 0.95777,0.34965 3.06806,0.66438 4.68945,0.69922 2.53461,0.0544 2.89987,-0.0397 2.60742,-0.67578 -0.5108,-1.11113 1.77719,-2.04974 4.29883,-1.76368 2.23971,0.25409 3.59201,0.0599 3.75195,-0.53711 0.15207,-0.56752 -1.17912,-0.8264 -2.99218,-0.58203 -0.86973,0.11724 -3.60792,0.0432 -6.08399,-0.16601 -1.85701,-0.15694 -3.53147,-0.25234 -4.31836,-0.25196 z m 20.05469,2.49805 c -0.88886,-0.0126 -1.64363,0.35214 -2.48242,1.16016 -0.38187,0.36786 -0.71316,0.69634 -0.73633,0.73047 -0.0231,0.0341 0.68709,0.0587 1.58008,0.0547 1.96027,-0.009 9.26664,-1.31545 9.08789,-1.625 -0.0698,-0.12083 -1.28071,-0.13931 -2.69141,-0.041 -1.41065,0.0983 -3.12809,0.0343 -3.8164,-0.14258 -0.33391,-0.0858 -0.64512,-0.13251 -0.94141,-0.13672 z"
         style="fill:#4d4d4d;stroke-width:0.41768998" />
    </g>
    <g
       aria-label="$"
       style="font-style:normal;font-variant:normal;font-weight:normal;font-stretch:normal;font-size:160.75778198px;line-height:1.25;font-family:'appo paint';-inkscape-font-specification:'appo paint';letter-spacing:0px;word-spacing:0px;fill:#aad400;fill-opacity:1;stroke:none;stroke-width:0.83728015"
       id="text823">
      <path
         d="m 263.88762,163.01545 -1.60758,-7.55561 c -0.64303,-3.21516 -1.92909,-5.14425 -3.53667,-5.78728 0,1.28606 0.16076,3.0544 0.64303,4.98349 0.48228,1.92909 0.80379,3.37591 0.80379,4.1797 l -3.21515,-7.55561 c -0.32152,-0.16076 -0.80379,-0.32152 -1.12531,-0.64304 -0.32151,-0.32151 -0.64303,-0.48227 -0.80379,-0.48227 -0.32151,0 -0.80379,0.32152 -1.44682,0.64303 -0.64303,0.48228 -1.28606,0.96455 -1.92909,1.44682 -0.64303,0.64303 -1.28606,1.12531 -1.92909,1.44682 -0.64304,0.48228 -1.12531,0.64303 -1.44682,0.64303 -0.64304,0 -1.12531,-0.16075 -1.76834,-0.80378 -0.96455,0.96454 -1.28606,2.08985 -1.28606,3.69742 0,0.64304 0,1.28607 0.16076,2.08986 0,0.96454 0.32151,2.08985 0.80378,3.37591 0.64304,2.89364 0.80379,4.82273 0.80379,5.94804 -0.64303,0 -1.1253,0.16075 -1.44682,0.16075 -0.32151,0 -0.80379,0.16076 -1.1253,0.16076 v -0.16076 l -2.08985,-7.39485 c 0,0.16075 0,0.48227 0.16076,1.1253 0,0.64303 0.32151,1.60758 0.80378,2.73288 0,0.64303 0.16076,1.28607 0.16076,1.9291 v 1.60757 h -0.96454 v 0.80379 c -0.32152,0.16076 -0.48228,0.16076 -0.48228,0.16076 -0.16076,0 -0.32151,0.16076 -0.32151,0.16076 0,0 0.16075,-0.32152 0.48227,-0.64303 -1.28606,0.96454 -2.73288,1.60758 -4.01894,2.25061 -1.28607,0.64303 -2.73289,1.1253 -4.01895,1.60757 -0.32152,-0.32151 -0.80379,-0.48227 -1.28606,-0.48227 -0.32152,0 -0.80379,0.16076 -1.28606,0.48227 -0.64304,0.32152 -1.12531,0.48228 -1.76834,0.80379 -0.64303,0.32152 -1.28606,0.48228 -1.92909,0.64303 -0.64303,0.32152 -1.28607,0.32152 -1.60758,0.16076 v -0.32151 c -7.07334,3.21515 -11.4138,5.62652 -13.3429,7.55561 -2.57212,5.62652 -3.69743,11.73532 -3.69743,18.16563 0,2.73288 0.16076,5.30501 0.48228,7.87713 0.32151,2.57213 0.96454,4.98349 1.92909,7.2341 1.60758,4.17971 4.01895,6.1088 7.55562,6.1088 0.64303,0.80379 1.60757,1.44682 2.57212,2.08985 0.96455,0.64303 2.25061,1.1253 3.53667,1.60758 l 6.26956,2.08985 c -1.12531,0.64303 -1.60758,0.80379 -1.28607,0.80379 4.82274,0 8.84168,0.16076 12.05684,0.48227 -0.48228,4.01895 -0.80379,8.19865 -0.96455,12.69987 -0.16076,4.50121 -0.16076,9.32395 -0.16076,14.14668 v 5.94804 c 0,2.25061 0,4.50122 0.16076,7.07334 -1.28606,-1.28606 -2.57212,-2.73288 -3.53667,-4.34046 -3.37591,-3.69743 -4.98349,-8.3594 -4.98349,-14.14668 0,-2.25061 0.32151,-4.34046 0.96454,-6.26956 -0.96454,-0.96454 -1.44682,-1.44682 -1.76833,-1.44682 -0.48227,0 -1.12531,0.80379 -1.92909,2.25061 -0.96455,1.60758 -1.9291,2.25061 -2.89364,1.9291 -0.48228,-0.16076 -0.96455,-0.32152 -1.28607,-0.64304 -0.32151,-0.32151 -0.32151,-0.64303 0,-1.28606 -1.92909,0.64303 -2.89364,1.28606 -3.21515,1.9291 l -0.96455,-1.28607 -2.25061,2.57213 c -0.32151,-0.16076 -0.80379,-0.32152 -1.1253,-0.64303 -0.32152,-0.32152 -0.48228,-0.64303 -0.16076,-1.28607 l -1.28606,1.60758 c -0.48228,-0.16076 -0.80379,-0.32151 -0.80379,-0.32151 -0.96455,0 -1.76834,0.80379 -2.57213,2.25061 -0.64303,1.1253 -0.96454,1.92909 -1.28606,2.41136 -0.32151,0.48228 -0.64303,0.80379 -0.64303,0.80379 -0.32151,-0.16076 -0.32151,-0.80379 -0.32151,-1.76833 -1.9291,2.57212 -2.25061,4.66197 -0.96455,6.10879 l 0.64303,5.30501 c 0.32152,2.08985 0,3.53667 -0.64303,4.50122 -1.44682,-2.73289 -1.76834,-4.82274 -1.12531,-6.43032 l -0.16075,0.32152 c -0.80379,-2.57212 -1.12531,-4.66198 -1.12531,-6.59107 0,-1.92909 0.32152,-3.53667 1.12531,-4.98349 h -0.96455 c -1.28606,2.25061 -1.76834,4.66198 -1.76834,7.55562 0,1.28606 0,2.73288 0.32152,4.66197 0.32152,1.92909 0.80379,4.1797 1.44682,6.75183 1.28606,5.78728 3.69743,9.00243 7.55562,9.48471 0,0 0.32151,0.32151 0.80378,0.80379 0.48228,0.48227 0.64304,0.96454 0.48228,1.44682 -0.32152,0.64303 -0.64303,0.80379 -0.96455,0.80379 -0.32151,0 -0.64303,-0.16076 -1.28606,-0.48228 -0.64303,-0.32151 -0.96455,-0.48227 -1.12531,-0.32151 l 4.9835,5.305 h 0.16075 c -0.32151,0 -0.16075,-0.32151 0.48228,-0.96454 0.16075,0 0.48227,-0.16076 0.80379,-0.16076 1.44682,0 2.57212,0.48227 3.21515,1.44682 v -0.32152 c 0,-0.16075 0.16076,-0.32151 0.48227,-0.64303 0.16076,0 0.48228,0.32152 0.96455,0.64303 0.16076,0.96455 0.96455,1.28607 2.57213,0.80379 3.85818,2.25061 6.91258,3.69743 9.16319,4.34046 0.64303,-0.16076 1.1253,-0.32151 1.60758,-0.32151 0.80379,0 2.25061,0.48227 4.1797,1.44682 0,4.1797 0.16076,7.71637 0.16076,10.61001 0,2.89364 0.16076,5.46576 0.16076,7.39486 l 2.41136,-5.78728 c 0,-0.48228 -0.16076,-1.60758 -0.16076,-3.53667 0,-1.9291 -0.16075,-4.34046 -0.16075,-7.55562 l 1.60757,0.48227 0.32152,12.37835 1.92909,3.21516 c 0.48228,-0.32152 1.44682,-0.32152 2.73289,-0.32152 1.28606,0.16076 2.2506,-0.16075 2.89364,-0.96454 0.80378,0 1.28606,0.64303 1.60757,1.92909 0.16076,1.28606 0.48228,2.41137 0.80379,3.53667 0,-1.92909 0.16076,-3.0544 0.48228,-3.37591 l 3.21515,3.69743 1.60758,-5.78728 c 0.64303,-2.57213 1.28606,-4.34046 2.25061,-5.46577 l -0.16076,-8.19864 c 3.21516,-0.96455 6.75183,-2.73289 10.61001,-5.30501 -0.32151,0.16076 -0.64303,0.16076 -0.96454,0.16076 -0.64303,0 -1.28607,-0.16076 -1.60758,-0.48228 0.64303,0 2.08985,-0.96454 4.66197,-2.89364 1.60758,-1.28606 3.37592,-1.92909 5.14425,-1.92909 8.03789,-6.59107 13.82517,-15.91502 17.36184,-27.8111 0.64304,-2.25061 0.96455,-4.82273 0.96455,-7.55561 0,-11.25305 -5.30501,-20.577 -15.5935,-27.97186 -3.85819,-2.73288 -9.80623,-4.1797 -17.84412,-4.1797 -0.32151,0 -0.64303,0.16076 -0.96454,0.16076 -0.32152,0 -0.64304,0 -0.96455,0 0,-3.53667 0,-6.75183 0,-9.64547 0,-2.73288 0.16076,-5.14425 0.16076,-7.2341 v -9.64547 c 0.96454,1.44682 1.60757,2.08986 1.76833,2.08986 0.32152,0.48227 0.80379,1.76833 1.12531,3.69742 0,1.28607 0.32151,2.08986 0.96454,2.41137 v 6.26956 c 0,3.69742 0.32152,6.91258 1.28607,9.64546 v -11.4138 -3.53667 c 0.96454,0.80379 1.76833,0.48227 2.41136,-0.80379 0.64303,0 1.60758,0.32152 2.57213,0.96455 l 2.25061,1.76833 c -0.64304,-0.48227 -0.32152,-1.44682 0.96454,-2.73288 l 1.76834,0.48227 v -0.96454 c 0.48227,-0.64303 1.28606,-0.96455 2.25061,-0.80379 0.48227,1.28606 1.60758,2.41136 3.21515,3.21515 l 2.41137,1.60758 c 0.64303,0.48227 0.96455,0.80379 1.28606,0.96455 0,-0.32152 0,-0.80379 0.16076,-1.12531 0.32152,-0.64303 0.48227,-1.28606 0.48227,-1.60757 0,-0.48228 -0.32151,-0.96455 -0.96454,-1.28607 0,-0.48227 -0.16076,-1.1253 -0.32152,-1.92909 -0.32151,-0.64303 -0.48227,-1.44682 -0.80379,-2.25061 -0.32151,-0.80379 -0.48227,-1.60758 -0.80379,-2.41137 -0.32151,-0.64303 -0.32151,-1.28606 -0.32151,-1.76833 0,-1.12531 0.48227,-2.08985 1.44682,-3.0544 l -1.9291,-5.78728 c 1.12531,1.28606 2.08986,2.89364 2.73289,4.82273 0.64303,2.08985 1.60757,3.69743 2.57212,4.82274 1.28606,0 1.92909,-0.16076 2.25061,-0.48228 -0.32152,-1.76833 -0.96455,-3.53667 -1.60758,-5.46576 -0.80379,-1.76834 -1.76833,-3.53667 -3.0544,-5.46577 l -7.2341,-9.80622 c -4.50121,-2.41137 -9.80622,-3.69743 -16.07577,-3.69743 h -1.60758 c -0.16076,-0.48227 -0.16076,-1.28606 -0.16076,-2.41137 z m 3.53667,101.75968 v -0.16076 0.16076 c -0.64303,0.96455 -1.44682,1.92909 -2.25061,2.73288 l -1.44682,1.60758 c 0,-4.1797 0,-8.84168 0,-13.66441 0,-4.82273 0.16076,-10.2885 0.48228,-16.39729 0,-0.80379 0,-1.60758 0,-2.57213 0,-0.80379 0.16075,-1.60758 0.16075,-2.57212 l 0.64303,0.48227 c 0.80379,0.96455 1.60758,1.76833 2.25061,2.41137 0.64303,0.80379 1.12531,1.60757 1.60758,2.41136 l 0.16076,0.96455 v -0.64303 c 0.48227,0.96455 0.80379,1.92909 1.1253,3.21515 0.32152,1.28607 0.32152,3.21516 0.32152,5.78728 0,2.89364 0.32151,4.9835 0.96455,5.94804 -0.32152,3.53667 -1.76834,7.07334 -4.01895,10.2885 z m -27.32882,-52.72855 c -1.28606,-3.21516 -1.76834,-6.59107 -1.76834,-10.2885 0,-4.50122 0.80379,-8.35941 2.57213,-11.89608 l 1.44682,-1.1253 v 1.44682 c 0,0.48227 0,0.96455 0.16076,1.44682 0,2.57212 -0.16076,4.66198 -0.48228,6.59107 h 0.32152 v 15.11123 c -0.80379,-0.32152 -1.60758,-0.64303 -2.25061,-1.28606 z m 7.07334,19.13017 c -0.32151,4.50122 -0.48227,8.84168 -0.64303,12.86063 -0.32152,4.1797 -0.64303,8.03789 -0.96455,11.57456 l 0.32152,16.07577 -0.16076,-0.16075 -1.60758,-0.96455 -0.64303,-7.71637 c 0.48228,-4.50122 0.80379,-9.48471 1.12531,-14.95048 0.32151,-5.305 0.48227,-11.09228 0.64303,-17.36184 0.32151,0.32152 0.96454,0.48228 1.92909,0.64303 z m 0.32152,-16.39729 -2.08985,-0.48227 -0.48228,-27.00731 c 0.32152,-0.16076 0.48228,-0.32152 0.80379,-0.32152 0.32152,0 0.64303,0 0.96455,-0.16075 0.16076,0.64303 0,1.44682 -0.32152,2.57212 -0.32151,1.1253 -0.48227,1.92909 -0.16076,2.41137 l 0.96455,-6.26956 c 0,1.28607 0,2.41137 0,3.53667 0,1.28607 0.16076,2.41137 0.16076,3.69743 0,4.9835 0,9.32396 0,12.86063 0,3.53667 0.16076,6.59107 0.16076,9.16319 z m 21.7023,-49.83491 c 0,-2.41137 -0.32152,-4.50122 -0.80379,-6.43031 -0.48228,-1.9291 -0.96455,-3.53667 -1.60758,-4.98349 0,1.1253 0,1.92909 0.32152,2.57212 0.16075,0.64303 0.32151,1.28606 0.64303,1.76834 0.16075,0.64303 0.32151,1.1253 0.64303,1.76833 0.16076,0.64303 0.32151,1.28606 0.32151,1.92909 0,1.60758 0.16076,2.73289 0.48228,3.37592 z m 11.09228,118.96076 c -0.80378,0 -1.92909,0.80379 -3.37591,2.25061 l -0.96455,0.96454 c 0.64303,-0.48227 1.44682,-0.96454 2.08985,-1.60758 0.64304,-0.48227 1.44683,-0.96454 2.25061,-1.60757 z m -11.57456,-14.14669 h 0.48228 v 0.96455 h -0.48228 z m -22.8276,-65.58917 h 0.32151 v -0.64303 h -0.32151 z m 30.0617,82.95101 -1.44682,0.96455 c 0.16076,0 0.32152,-0.16076 0.64303,-0.32152 0.32152,-0.16075 0.48228,-0.32151 0.80379,-0.64303 z m -52.40703,-1.60758 0.48227,0.96455 c 0,-0.16076 -0.16076,-0.32151 -0.16076,-0.48227 -0.16076,0 -0.32151,-0.16076 -0.32151,-0.48228 z m 49.99567,-34.08065 0.16075,-2.57212 c 0,1.28606 -0.16075,2.08985 -0.16075,2.57212 z m -50.31719,33.75914 0.32152,0.32151 z m -13.82517,-25.23897 -0.16076,0.16075 c 0,0 0.16076,0 0.16076,-0.16075 z"
         style="font-size:160.75778198px;fill:#aad400;fill-opacity:1;stroke-width:0.83728015"
         id="path825" />
    </g>
  </g>
</svg>
